<svg xmlns="http://www.w3.org/2000/svg" xmlns:xlink="http://www.w3.org/1999/xlink" viewBox="0 0 114.31 82.85"><defs><style>.cls-1,.cls-16{fill:none;}.cls-2{fill:#fff;}.cls-3{clip-path:url(#clip-path);}.cls-4{fill:#3a1904;}.cls-5{clip-path:url(#clip-path-2);}.cls-6{clip-path:url(#clip-path-4);}.cls-7{fill:url(#linear-gradient);}.cls-8{clip-path:url(#clip-path-5);}.cls-9{fill:url(#linear-gradient-2);}.cls-10{clip-path:url(#clip-path-6);}.cls-11{fill:url(#linear-gradient-3);}.cls-12{clip-path:url(#clip-path-7);}.cls-13{fill:url(#linear-gradient-4);}.cls-14{clip-path:url(#clip-path-8);}.cls-15{fill:url(#linear-gradient-5);}.cls-16{stroke:#3a1904;stroke-miterlimit:10;stroke-width:1.05px;}.cls-17{clip-path:url(#clip-path-10);}.cls-18{fill:url(#radial-gradient);}.cls-19{fill:#ed1c24;}.cls-20{clip-path:url(#clip-path-12);}.cls-21{fill:url(#radial-gradient-2);}.cls-22{clip-path:url(#clip-path-13);}.cls-23{fill:url(#radial-gradient-3);}</style><clipPath id="clip-path"><rect class="cls-1" x="14.69" y="19.89" width="84.92" height="43.08"/></clipPath><clipPath id="clip-path-2"><rect class="cls-1" x="15.82" y="21.55" width="82.66" height="39.75"/></clipPath><clipPath id="clip-path-4"><path class="cls-1" d="M15.82,21.55v3.66H26.73a3,3,0,0,1,1.42.32,1.13,1.13,0,0,1,.6,1.07,1.09,1.09,0,0,1-.6,1,2.92,2.92,0,0,1-1.42.33H15.82V38h4.43V31.63h1.21L27.91,38h5.41L27,31.63a7.18,7.18,0,0,0,4.38-1.19,4.65,4.65,0,0,0,1.83-3.5v-.7a6,6,0,0,0-.61-2,4.69,4.69,0,0,0-1.22-1.46,5.25,5.25,0,0,0-1.76-.91,7.62,7.62,0,0,0-2.19-.31Z"/></clipPath><linearGradient id="linear-gradient" x1="-252.61" y1="82.85" x2="-251.61" y2="82.85" gradientTransform="matrix(0, 15.64, 15.64, 0, -1271.01, 3971.98)" gradientUnits="userSpaceOnUse"><stop offset="0" stop-color="#f37021"/><stop offset="0.51" stop-color="#ef4223"/><stop offset="1" stop-color="#9e0b0f"/></linearGradient><clipPath id="clip-path-5"><path class="cls-1" d="M54.23,21.55a7.64,7.64,0,0,0-2.2.31,5.29,5.29,0,0,0-1.75.91,4.66,4.66,0,0,0-1.21,1.46,5.77,5.77,0,0,0-.61,2v.7A4.91,4.91,0,0,0,49,29a4.83,4.83,0,0,0,1.24,1.48,5.29,5.29,0,0,0,1.77.9,7.68,7.68,0,0,0,2.19.3h5.59a2.77,2.77,0,0,1,1.1.41,1.05,1.05,0,0,1,.46.94,1.11,1.11,0,0,1-.6,1.07,2.92,2.92,0,0,1-1.42.33H47.28L48.85,38H60.1a7.29,7.29,0,0,0,2.19-.32,5.23,5.23,0,0,0,1.76-.9,4.62,4.62,0,0,0,1.22-1.47,5.85,5.85,0,0,0,.61-2v-.69a5.43,5.43,0,0,0-.59-2,4.4,4.4,0,0,0-1.23-1.47,5.09,5.09,0,0,0-1.77-.89A7.63,7.63,0,0,0,60.1,28H54.5a2.24,2.24,0,0,1-1.1-.41,1.27,1.27,0,0,1,.16-2A3,3,0,0,1,55,25.21H64.5V21.55Z"/></clipPath><linearGradient id="linear-gradient-2" x1="-252.61" y1="82.85" x2="-251.61" y2="82.85" gradientTransform="matrix(0, 15.64, 15.64, 0, -1239.01, 3971.98)" xlink:href="#linear-gradient"/><clipPath id="clip-path-6"><polygon class="cls-1" points="37.61 21.55 31.95 38.04 36.35 38.04 40.59 25.55 44.83 38.04 49.25 38.04 43.58 21.55 37.61 21.55"/></clipPath><linearGradient id="linear-gradient-3" x1="-252.61" y1="82.85" x2="-251.61" y2="82.85" gradientTransform="matrix(0, 15.64, 15.64, 0, -1254.98, 3971.98)" xlink:href="#linear-gradient"/><clipPath id="clip-path-7"><polygon class="cls-1" points="69.79 21.55 64.14 38.04 68.54 38.04 72.78 25.55 77.01 38.04 81.44 38.04 75.76 21.55 69.79 21.55"/></clipPath><linearGradient id="linear-gradient-4" x1="-252.61" y1="82.85" x2="-251.61" y2="82.85" gradientTransform="matrix(0, 15.64, 15.64, 0, -1222.8, 3971.98)" xlink:href="#linear-gradient"/><clipPath id="clip-path-8"><polygon class="cls-1" points="94.43 21.55 89.73 31.85 85.04 21.55 80.98 21.55 80.98 38.04 84.72 38.04 84.72 28.92 88.6 38.04 90.87 38.04 94.75 28.92 94.75 38.04 98.48 38.04 98.48 21.55 94.43 21.55"/></clipPath><linearGradient id="linear-gradient-5" x1="-252.61" y1="82.85" x2="-251.61" y2="82.85" gradientTransform="matrix(0, 15.64, 15.64, 0, -1205.85, 3971.98)" xlink:href="#linear-gradient"/><clipPath id="clip-path-10"><path class="cls-1" d="M57.15,44.72a53.3,53.3,0,0,1-16.6-2.89,14.3,14.3,0,0,0,6.85,8.79A5.82,5.82,0,0,1,57.15,50a5.83,5.83,0,0,1,9.76.62,14.33,14.33,0,0,0,6.85-8.79,53.37,53.37,0,0,1-16.61,2.89"/></clipPath><radialGradient id="radial-gradient" cx="-252.61" cy="82.85" r="1" gradientTransform="matrix(-23.05, 0, 0, 23.05, -5750.37, -1861.14)" gradientUnits="userSpaceOnUse"><stop offset="0" stop-color="#6e2010"/><stop offset="1" stop-color="#3e0000"/></radialGradient><clipPath id="clip-path-12"><path class="cls-1" d="M75.64,42.65a3.84,3.84,0,0,1-2.41-2.51,2,2,0,0,0,2.41,2.51"/></clipPath><radialGradient id="radial-gradient-2" cx="-252.61" cy="82.85" gradientTransform="matrix(-7.6, 0, 0, 7.6, -1844.85, -588.84)" xlink:href="#radial-gradient"/><clipPath id="clip-path-13"><path class="cls-1" d="M38.59,42.65A2,2,0,0,0,41,40.14a3.84,3.84,0,0,1-2.41,2.51"/></clipPath><radialGradient id="radial-gradient-3" cx="-252.61" cy="82.85" gradientTransform="translate(670.46 1960.49) rotate(90) scale(7.6)" xlink:href="#radial-gradient"/></defs><title>Asset 31</title><g id="Layer_2" data-name="Layer 2"><g id="Layer_1-2" data-name="Layer 1"><rect class="cls-2" width="114.31" height="82.85"/><g class="cls-3"><path class="cls-4" d="M34.37,48l1.19-2L34,46.88a.34.34,0,0,1-.33-.6l2.55-1.39a.33.33,0,0,1,.46.15.39.39,0,0,1,0,.38c-.45.75-.72,1.19-1.2,2l1.63-.89a.35.35,0,0,1,.45.15.35.35,0,0,1-.12.46l-2.55,1.39a.34.34,0,0,1-.46-.16.38.38,0,0,1,0-.37"/><path class="cls-4" d="M36,48.56l.79-.57a1.28,1.28,0,1,1,1.5,2.07l-.79.57a1.18,1.18,0,0,1-1.79-.27,1.21,1.21,0,0,1,.29-1.8m1.19,0-.78.57a.6.6,0,1,0,.69,1l.79-.57c.32-.24.44-.52.19-.87s-.56-.32-.89-.09"/><path class="cls-4" d="M38.36,53.23,39,51,37.69,52.3a.34.34,0,0,1-.47,0,.32.32,0,0,1,0-.47l2.12-2a.34.34,0,0,1,.49,0,.42.42,0,0,1,.09.37c-.25.84-.41,1.33-.68,2.2l1.36-1.27a.33.33,0,0,1,.47,0,.32.32,0,0,1,0,.46l-2.12,2a.33.33,0,0,1-.49,0,.41.41,0,0,1-.1-.36"/><path class="cls-4" d="M41.19,54.4l-.93-.8a.31.31,0,0,1-.06-.44.33.33,0,0,1,.45,0l.93.8a.33.33,0,0,1,.05.44.3.3,0,0,1-.44,0"/><path class="cls-4" d="M42.83,55.43l-.21-.31c-.31-.4-.64-.84-.23-1.42a1,1,0,0,1,1.52-.17c.24.17.76.64.55.94a.31.31,0,0,1-.46.05.69.69,0,0,1-.16-.18,1,1,0,0,0-.27-.28c-.19-.14-.43-.2-.59,0a.33.33,0,0,0,0,.39,1.63,1.63,0,0,0,.22.32c.3.4.63.84.23,1.41a1.08,1.08,0,0,1-1.62.17c-.3-.21-.79-.72-.59-1a.32.32,0,0,1,.44-.06.64.64,0,0,1,.17.19,1.38,1.38,0,0,0,.34.36c.28.2.51.17.66,0a.32.32,0,0,0,0-.39"/><path class="cls-4" d="M45.36,55.26,44.9,55a.33.33,0,0,1-.15-.44.37.37,0,0,1,.46-.11l1.51.85a.34.34,0,0,1,.15.44.33.33,0,0,1-.46.1L46,55.6,44.7,57.84a.34.34,0,0,1-.6-.33Z"/><path class="cls-4" d="M46.25,57.57l.38-.9A1.16,1.16,0,0,1,48.3,56,1.18,1.18,0,0,1,49,57.66l-.38.9a1.28,1.28,0,1,1-2.36-1m1-.63-.38.9a.57.57,0,0,0,.29.84c.37.16.65,0,.8-.39l.38-.89c.15-.37.11-.68-.29-.84s-.65,0-.8.38"/><path class="cls-4" d="M49.84,59l-.24.87a.35.35,0,0,1-.67-.19L49.71,57a.37.37,0,0,1,.46-.23l.7.2a1.1,1.1,0,0,1,.89,1.45,1.11,1.11,0,0,1-1.52.75Zm.17-.6.4.11c.36.11.59,0,.69-.34a.48.48,0,0,0-.4-.65l-.4-.12Z"/></g><g class="cls-5"><path class="cls-4" d="M54.05,59.82c0,.42.07.7.51.75A.74.74,0,0,0,55,60.5l.05,0a.36.36,0,0,1,.22,0,.31.31,0,0,1,.29.33c0,.28-.55.47-1.07.41a1.14,1.14,0,0,1-1.11-1.41l.1-1a1.15,1.15,0,0,1,1.39-1.15c.51.06,1,.35.95.63a.3.3,0,0,1-.35.26.34.34,0,0,1-.2-.09l0,0a.76.76,0,0,0-.39-.16c-.44,0-.62.21-.66.63Z"/><path class="cls-4" d="M56.05,60l0-1a1.28,1.28,0,1,1,2.56,0v1a1.28,1.28,0,1,1-2.55,0m.67-1,0,1c0,.39.19.66.6.66s.58-.29.58-.68l0-1c0-.4-.17-.66-.6-.66s-.58.28-.58.68"/></g><g class="cls-3"><path class="cls-4" d="M62.48,60.5a.35.35,0,0,1-.69.09l-.24-1.67-.39,1.17a.35.35,0,0,1-.3.23.33.33,0,0,1-.34-.14l-.71-1,.24,1.67a.35.35,0,0,1-.31.36.33.33,0,0,1-.37-.26L59,58.06a.32.32,0,0,1,.3-.37.34.34,0,0,1,.37.14l1.11,1.59.62-1.85a.34.34,0,0,1,.31-.23.34.34,0,0,1,.4.27Z"/><path class="cls-4" d="M65.06,60.06l-1.25.35c-.24.07-.47,0-.54-.21l-.75-2.67a.38.38,0,0,1,.27-.43l1.29-.36a.33.33,0,0,1,.41.21.32.32,0,0,1-.24.39l-1,.27.21.77.9-.26a.34.34,0,0,1,.41.21.33.33,0,0,1-.24.4l-.9.25.22.77,1-.29a.34.34,0,0,1,.42.2.34.34,0,0,1-.25.4"/><path class="cls-4" d="M66.89,59.4l-.52.21a.39.39,0,0,1-.49-.19l-1-2.55a.39.39,0,0,1,.22-.48l.52-.21c1-.42,1.61,0,1.87.64l.32.78a1.29,1.29,0,0,1-.88,1.8m-.08-2.32a.62.62,0,0,0-.92-.35l-.31.13.84,2,.31-.12a.64.64,0,0,0,.4-.93Z"/><path class="cls-4" d="M69.32,58,68.81,57,67.24,56a.36.36,0,0,1-.1-.11.36.36,0,0,1,.15-.45.31.31,0,0,1,.32,0l1.13.77,0-1.36a.32.32,0,0,1,.18-.27.35.35,0,0,1,.45.12.33.33,0,0,1,0,.14l.06,1.89.52,1a.34.34,0,0,1-.16.45.33.33,0,0,1-.46-.12"/><path class="cls-4" d="M72.79,54.42l-.36.12c-.47.18-1,.38-1.42-.18a1,1,0,0,1,.27-1.51c.22-.18.82-.55,1-.26a.31.31,0,0,1-.08.45.7.7,0,0,1-.23.11,1.18,1.18,0,0,0-.34.17c-.18.15-.31.36-.13.59a.35.35,0,0,0,.37.13,2.53,2.53,0,0,0,.36-.12c.47-.18,1-.37,1.42.18a1.09,1.09,0,0,1-.3,1.6c-.28.23-.9.55-1.12.28a.32.32,0,0,1,.07-.44.55.55,0,0,1,.23-.11,1.48,1.48,0,0,0,.44-.22c.27-.21.31-.44.14-.65a.32.32,0,0,0-.37-.14"/><path class="cls-4" d="M76.37,53a.35.35,0,0,1-.47,0l-.8-.81-.75.74.81.81a.35.35,0,0,1-.49.49l-2.06-2.07a.34.34,0,0,1,0-.47.33.33,0,0,1,.46,0l.81.81.74-.73L73.84,51a.34.34,0,0,1,0-.46.33.33,0,0,1,.46,0l2.06,2.07a.34.34,0,0,1,0,.47"/><path class="cls-4" d="M76.13,51.38l-.76-.6a1.28,1.28,0,1,1,1.57-2l.77.6a1.28,1.28,0,1,1-1.58,2m-.34-1.15.77.6a.57.57,0,0,0,.89,0,.58.58,0,0,0-.17-.87l-.76-.6c-.32-.25-.62-.29-.89,0s-.15.63.16.87"/><path class="cls-4" d="M78.65,46.38c.27.07.52.19.78.28-.21-.18-.44-.34-.64-.53l-.93-.9a.3.3,0,0,1-.06-.39.35.35,0,0,1,.45-.19l0,0,2.12,2.06a.42.42,0,0,1-.4.7l-1.19-.34a6.77,6.77,0,0,1-.75-.28c.2.17.42.33.61.51l.91.86a.39.39,0,0,1,.07.5.46.46,0,0,1-.47.2l-2.83-.78-.09,0a.34.34,0,0,1-.07-.47.32.32,0,0,1,.36-.16l1.26.35c.27.07.52.19.78.28-.2-.17-.44-.34-.64-.52l-.86-.83c-.17-.16-.25-.29-.12-.52a.38.38,0,0,1,.51-.17Z"/></g><g class="cls-6"><rect class="cls-7" x="15.82" y="21.55" width="17.5" height="16.49"/></g><g class="cls-8"><rect class="cls-9" x="47.28" y="21.55" width="18.6" height="16.49"/></g><g class="cls-10"><rect class="cls-11" x="31.95" y="21.55" width="17.3" height="16.49"/></g><g class="cls-12"><rect class="cls-13" x="64.14" y="21.55" width="17.3" height="16.49"/></g><g class="cls-14"><rect class="cls-15" x="80.99" y="21.55" width="17.5" height="16.49"/></g><g class="cls-3"><path class="cls-16" d="M74,32.23,71.83,34l2.94,2.09M39.23,32.23,41.43,34l-2.94,2.09"/></g><g class="cls-17"><rect class="cls-18" x="40.01" y="36.77" width="34.28" height="18.91" transform="translate(-11.74 20.6) rotate(-18.57)"/></g><g class="cls-3"><path class="cls-19" d="M61.83,47.65A5.8,5.8,0,0,0,57.15,50a5.83,5.83,0,0,0-9.76.62,18.92,18.92,0,0,0,8.67,2.66c.36,0,.73,0,1.09,0s.73,0,1.1,0a18.88,18.88,0,0,0,8.66-2.66,5.77,5.77,0,0,0-5.08-3"/></g><g class="cls-20"><rect class="cls-21" x="72.1" y="39.52" width="4.05" height="3.99" transform="matrix(0.82, -0.58, 0.58, 0.82, -10.34, 50.63)"/></g><g class="cls-22"><rect class="cls-23" x="38.1" y="39.49" width="3.99" height="4.05" transform="translate(-16.97 50.14) rotate(-54.59)"/></g></g></g></svg>