<svg xmlns="http://www.w3.org/2000/svg" xmlns:xlink="http://www.w3.org/1999/xlink" viewBox="0 0 114.31 82.85"><defs><style>.cls-1{fill:none;}.cls-2{fill:#fff;}.cls-3{clip-path:url(#clip-path);}.cls-4{fill:#231f20;}.cls-5{fill:#ccc;}.cls-6{fill:#747474;}.cls-7{fill:#241f1f;}.cls-8{fill:#2b2626;}.cls-9{fill:#8d9092;}.cls-10{clip-path:url(#clip-path-2);}.cls-11{fill:#a7a9ac;}.cls-12{clip-path:url(#clip-path-4);}.cls-13{fill:url(#linear-gradient);}.cls-14{fill:#ffcd0a;}.cls-15{clip-path:url(#clip-path-6);}.cls-16{fill:url(#linear-gradient-2);}.cls-17{clip-path:url(#clip-path-7);}.cls-18{fill:url(#linear-gradient-3);}.cls-19{clip-path:url(#clip-path-8);}.cls-20{fill:url(#linear-gradient-4);}.cls-21{fill:#3a383b;}.cls-22{fill:#848183;}.cls-23{fill:#141416;}.cls-24{fill:#727274;}.cls-25{fill:#cbcacb;}.cls-26{fill:#242225;}.cls-27{fill:#535453;}.cls-28{fill:#303032;}.cls-29{fill:#3d3b40;}.cls-30{fill:#d3d3d3;}</style><clipPath id="clip-path"><rect class="cls-1" x="7.86" y="22.08" width="98.59" height="38.7"/></clipPath><clipPath id="clip-path-2"><rect class="cls-1" x="8.76" y="23" width="96.79" height="36.84"/></clipPath><clipPath id="clip-path-4"><path class="cls-1" d="M55.19,36.3a6.24,6.24,0,1,0,2.38-.48,6.25,6.25,0,0,0-2.38.48M51.7,44.51a6.36,6.36,0,0,1,3.45-8.32,6.25,6.25,0,0,1,2.42-.48,6.37,6.37,0,1,1-5.87,8.8m2.83-9.82a8,8,0,1,0,3-.61,8,8,0,0,0-3,.61M50.08,45.18a8.14,8.14,0,0,1,4.4-10.6A8,8,0,0,1,57.57,34a8.11,8.11,0,0,1,3.11,15.61,8,8,0,0,1-3.09.62,8.15,8.15,0,0,1-7.51-5m3.82-12a9.63,9.63,0,1,0,3.67-.73,9.5,9.5,0,0,0-3.67.73M48.55,45.81a9.78,9.78,0,1,1,9,6,9.79,9.79,0,0,1-9-6m4.81-13.94A11,11,0,0,0,57.6,53.12a10.93,10.93,0,0,0,4.2-.84,11,11,0,1,0-8.44-20.41"/></clipPath><linearGradient id="linear-gradient" y1="82.85" x2="1" y2="82.85" gradientTransform="matrix(0, -22.37, -22.37, 0, 1911.25, 53.26)" gradientUnits="userSpaceOnUse"><stop offset="0" stop-color="#272726"/><stop offset="0.1" stop-color="#272726"/><stop offset="0.33" stop-color="#424242"/><stop offset="0.5" stop-color="#515151"/><stop offset="0.67" stop-color="#393738"/><stop offset="0.79" stop-color="#252223"/><stop offset="1" stop-color="#231f20"/></linearGradient><clipPath id="clip-path-6"><path class="cls-1" d="M50.19,45.13a8,8,0,1,1,7.4,4.94,8,8,0,0,1-7.4-4.94m4.29-10.55a8.11,8.11,0,0,0,3.11,15.61A8.13,8.13,0,0,0,65.08,39a8.14,8.14,0,0,0-7.51-5,8,8,0,0,0-3.09.62"/></clipPath><linearGradient id="linear-gradient-2" y1="82.85" x2="1" y2="82.85" gradientTransform="matrix(0, -22.37, -22.37, 0, 1911.25, 53.26)" gradientUnits="userSpaceOnUse"><stop offset="0" stop-color="#252223"/><stop offset="0.1" stop-color="#252223"/><stop offset="0.19" stop-color="#2a2728"/><stop offset="0.5" stop-color="#363434"/><stop offset="0.79" stop-color="#242021"/><stop offset="1" stop-color="#2b2728"/></linearGradient><clipPath id="clip-path-7"><path class="cls-1" d="M51.81,44.46a6.23,6.23,0,1,1,5.78,3.87,6.25,6.25,0,0,1-5.78-3.87m3.34-8.27a6.37,6.37,0,1,0,2.42-.48,6.25,6.25,0,0,0-2.42.48"/></clipPath><linearGradient id="linear-gradient-3" y1="82.85" y2="82.85" xlink:href="#linear-gradient-2"/><clipPath id="clip-path-8"><path class="cls-1" d="M48.68,45.76A9.65,9.65,0,0,1,53.9,33.17a9.5,9.5,0,0,1,3.67-.73,9.64,9.64,0,1,1-8.89,13.32M53.84,33a9.79,9.79,0,1,0,3.73-.74,9.79,9.79,0,0,0-3.73.74"/></clipPath><linearGradient id="linear-gradient-4" y1="82.85" y2="82.85" xlink:href="#linear-gradient-2"/></defs><title>Asset 11</title><g id="Layer_2" data-name="Layer 2"><g id="Layer_1-2" data-name="Layer 1"><rect class="cls-2" width="114.31" height="82.85"/><g class="cls-3"><path class="cls-4" d="M10.86,38.38c0-.18.13-.28.22-.28s.19,0,.34.34l3,6,3-6.1c.09-.18.2-.27.3-.27s.22.11.25.34l1,6.71c.1.68.21,1,.55,1.07a2.31,2.31,0,0,0,.64.11c.1,0,.18,0,.18.1s-.13.13-.29.13-1.89,0-2.34-.07c-.27,0-.33-.06-.33-.12s.05-.09.13-.12.09-.15.05-.46L17,41.08h0L14.55,45.9c-.26.52-.32.62-.45.62s-.27-.22-.45-.55c-.27-.5-1.16-2.17-1.29-2.48S11.6,42,11.23,41.21h0l-.54,4.21a4.49,4.49,0,0,0,0,.51c0,.2.15.28.34.32a1.85,1.85,0,0,0,.4,0c.1,0,.18.05.18.1s-.1.13-.27.13c-.47,0-1,0-1.19,0s-.76,0-1.12,0c-.11,0-.2,0-.2-.13s.06-.1.18-.1l.34,0c.31,0,.41-.48.46-.84Z"/><path class="cls-4" d="M24.57,41.44c0-1.65,0-2,0-2.3s-.13-.49-.49-.59a1.82,1.82,0,0,0-.45,0c-.11,0-.19,0-.19-.12s.09-.1.26-.1l1.63,0c.36,0,2.86,0,3.07,0s.39-.05.48-.06a1.67,1.67,0,0,1,.18,0c.06,0,.07,0,.07.1A6,6,0,0,0,29,39c0,.11,0,.59-.06.71s0,.18-.13.18-.09,0-.09-.14a1,1,0,0,0-.07-.39c-.09-.2-.18-.35-.75-.4-.19,0-1.54,0-1.77,0-.05,0-.07,0-.07.1v2.69c0,.07,0,.12.07.12.26,0,1.72,0,2,0a.82.82,0,0,0,.54-.17c.08-.07.12-.14.17-.14s.09.06.09.12,0,.24-.09.79c0,.22-.05.66-.05.73s0,.25-.11.25-.1,0-.1-.09,0-.26,0-.4-.21-.38-.63-.42c-.21,0-1.49,0-1.77,0,0,0-.06,0-.06.11v.87c0,.38,0,1.3,0,1.62,0,.74.37.91,1.52.91a3,3,0,0,0,1.07-.14c.28-.13.41-.36.48-.81,0-.12.05-.17.13-.17s.1.14.1.26a7.72,7.72,0,0,1-.15,1.2c-.08.29-.18.29-.6.29-.85,0-1.53,0-2.08,0l-1.31,0-.64,0-.78,0c-.14,0-.22,0-.22-.11s0-.12.18-.12a1.45,1.45,0,0,0,.4,0c.23,0,.29-.25.33-.57s.05-1.32.05-2.32Z"/><path class="cls-4" d="M34.69,38.38c0-.18.12-.28.21-.28s.2,0,.35.34l3,6,3-6.1c.09-.18.19-.27.29-.27s.22.11.26.34l1,6.71c.1.68.2,1,.55,1.07a2.31,2.31,0,0,0,.64.11c.1,0,.18,0,.18.1s-.13.13-.3.13-1.88,0-2.33-.07c-.27,0-.33-.06-.33-.12s.05-.09.12-.12.09-.15.06-.46l-.63-4.71h0L38.38,45.9c-.26.52-.32.62-.45.62s-.27-.22-.45-.55c-.27-.5-1.17-2.17-1.29-2.48s-.76-1.52-1.13-2.28h0l-.54,4.21a3,3,0,0,0,0,.51c0,.2.16.28.35.32a1.78,1.78,0,0,0,.4,0c.1,0,.17.05.17.1s-.1.13-.26.13c-.48,0-1,0-1.2,0s-.75,0-1.11,0c-.12,0-.21,0-.21-.13s.07-.1.18-.1l.35,0c.31,0,.41-.48.46-.84Z"/><path class="cls-4" d="M73,41.44c0-1.65,0-2,0-2.3s-.12-.49-.48-.59a1.82,1.82,0,0,0-.45,0c-.12,0-.19,0-.19-.12s.09-.1.25-.1l1.54,0,1.76,0a3.91,3.91,0,0,1,2.14.46,1.91,1.91,0,0,1,.79,1.5c0,.81-.46,1.53-1.56,2.41,1,1.23,1.79,2.22,2.47,2.9a2.09,2.09,0,0,0,1.21.71.89.89,0,0,0,.27,0,.13.13,0,0,1,.14.12c0,.09-.08.11-.22.11H79.58a2.4,2.4,0,0,1-1.23-.22,5.11,5.11,0,0,1-1.54-1.6c-.44-.59-.92-1.32-1.06-1.49a.26.26,0,0,0-.2-.07l-1,0a.08.08,0,0,0-.09.09v.16c0,1,0,1.85.07,2.32s.09.52.43.57a3.65,3.65,0,0,0,.55,0,.14.14,0,0,1,.15.12c0,.07-.09.11-.24.11-.65,0-1.58,0-1.75,0s-.94,0-1.39,0c-.14,0-.21,0-.21-.11s0-.12.18-.12a1.41,1.41,0,0,0,.39,0c.23,0,.3-.25.34-.57s.05-1.33.05-2.32Zm1.43.85a.17.17,0,0,0,.11.19,2.92,2.92,0,0,0,.85.1,1.15,1.15,0,0,0,.8-.18,1.81,1.81,0,0,0,.73-1.61,1.72,1.72,0,0,0-1.72-1.94,4.65,4.65,0,0,0-.66,0,.14.14,0,0,0-.11.16Z"/><path class="cls-4" d="M84.11,41.44c0-1.65,0-2,0-2.3s-.14-.5-.38-.58a1.4,1.4,0,0,0-.41-.05c-.12,0-.18,0-.18-.13s.09-.09.27-.09l1.51,0,1.45,0c.14,0,.23,0,.23.09s-.06.13-.18.13a1.35,1.35,0,0,0-.33,0c-.31.05-.4.2-.43.59s0,.65,0,2.3v1.93c0,1.05,0,1.92,0,2.38,0,.29.12.46.45.51a3.6,3.6,0,0,0,.58,0c.12,0,.18.06.18.12s-.09.11-.22.11c-.75,0-1.52,0-1.82,0s-1,0-1.48,0c-.14,0-.21,0-.21-.11s0-.12.17-.12a1.45,1.45,0,0,0,.4,0c.23,0,.3-.2.34-.52s0-1.32,0-2.37Z"/><path class="cls-4" d="M91.63,41.44c0-1.65,0-2,0-2.3s-.13-.49-.49-.59a1.82,1.82,0,0,0-.45,0c-.11,0-.19,0-.19-.12s.09-.1.26-.1l1.62,0c.36,0,2.86,0,3.08,0s.38-.05.47-.06.13,0,.18,0,.08,0,.08.1a6,6,0,0,0-.09.71c0,.11,0,.59-.06.71s0,.18-.13.18-.09,0-.09-.14a.9.9,0,0,0-.08-.39c-.09-.2-.18-.35-.74-.4-.19,0-1.54,0-1.77,0,0,0-.08,0-.08.1v2.69c0,.07,0,.12.08.12.26,0,1.72,0,2,0a.8.8,0,0,0,.54-.17c.09-.07.13-.14.18-.14s.09.06.09.12,0,.24-.09.79c0,.22,0,.66,0,.73s0,.25-.12.25a.09.09,0,0,1-.1-.09,3,3,0,0,0,0-.4c-.06-.22-.2-.38-.62-.42-.21,0-1.49,0-1.77,0,0,0-.07,0-.07.11v.87c0,.38,0,1.3,0,1.62,0,.74.37.91,1.53.91a3,3,0,0,0,1.06-.14c.28-.13.41-.36.49-.81,0-.12,0-.17.13-.17s.1.14.1.26a7.72,7.72,0,0,1-.15,1.2c-.08.29-.18.29-.61.29-.84,0-1.52,0-2.07,0l-1.31,0-.64,0-.78,0c-.14,0-.22,0-.22-.11s0-.12.18-.12a1.49,1.49,0,0,0,.4,0c.23,0,.29-.25.33-.57s0-1.32,0-2.32Z"/><path class="cls-4" d="M100.7,46.39c-.18-.08-.21-.13-.21-.37,0-.59.05-1.27.06-1.45s0-.28.14-.28.12.1.12.18a2.14,2.14,0,0,0,.1.56,1.74,1.74,0,0,0,1.79,1.08,1.42,1.42,0,0,0,1.57-1.39c0-.47-.12-.94-1.12-1.53l-.65-.39c-1.33-.78-1.77-1.51-1.77-2.47,0-1.34,1.28-2.19,2.85-2.19a6.54,6.54,0,0,1,1.6.18c.1,0,.15.06.15.14s0,.44,0,1.3c0,.23-.05.35-.14.35s-.11-.06-.11-.19a1.19,1.19,0,0,0-.3-.72,1.48,1.48,0,0,0-1.25-.51c-.81,0-1.54.42-1.54,1.16,0,.49.18.87,1.19,1.44l.46.26c1.49.82,2,1.65,2,2.64a2.32,2.32,0,0,1-1.13,2,3.24,3.24,0,0,1-1.88.45,4.78,4.78,0,0,1-1.84-.28"/><path class="cls-5" d="M47.8,47.43c.12.06.1.19.14.29-.21,0-.19-.15-.14-.29"/><path class="cls-5" d="M68,44.46v-.11l.08,0c.14.13,0,.11-.08.13"/><path class="cls-6" d="M47,41.58c0,.06,0,.11,0,.15s-.06-.11,0-.15"/><path class="cls-7" d="M48.12,41.74a.48.48,0,0,1,0-.33l.06,0c.1.1,0,.18,0,.35"/><path class="cls-8" d="M47.41,44.12c.08,0,.13,0,.15.1s0,.12-.09.14l-.06-.24"/><path class="cls-9" d="M47.52,55a1.56,1.56,0,1,1-2.33-2.08A1.56,1.56,0,1,1,47.52,55m-1.91-1.69a1,1,0,1,0,1.48,1.32,1,1,0,1,0-1.48-1.32"/><polygon class="cls-9" points="49.29 54.31 47.99 56.46 49.33 57.27 49.05 57.72 47.23 56.62 48.8 54.02 49.29 54.31"/><path class="cls-9" d="M52.82,57.62a1.43,1.43,0,0,1-2,.89l-1.12-.43,1.1-2.83,1.11.43a1.44,1.44,0,0,1,.88,1.94m-2.36.16L51,58a1,1,0,0,0,.7-1.81L51.16,56Z"/></g><g class="cls-10"><rect class="cls-9" x="53.03" y="57.72" width="3.04" height="0.57" transform="translate(-12.13 101.52) rotate(-79.89)"/><path class="cls-9" d="M57.48,57.5a.86.86,0,0,0-.7-.37c-.43,0-.64.15-.65.37s.3.35.66.41c.63.11,1.21.3,1.18,1s-.64.94-1.32.91a1.24,1.24,0,0,1-1.29-.8l.49-.23a.85.85,0,0,0,.83.52c.36,0,.7-.09.72-.42s-.28-.42-.68-.48c-.62-.1-1.18-.29-1.15-1s.65-.85,1.21-.83a1.25,1.25,0,0,1,1.17.65Z"/></g><g class="cls-3"><path class="cls-9" d="M61.62,57a1.19,1.19,0,0,0-.82-.14,1,1,0,0,0-.8,1.31,1,1,0,0,0,1.23.78,1,1,0,0,0,.62-.37L61.74,58l-.76.15-.1-.5,1.27-.26.26,1.26a1.48,1.48,0,0,1-1.08.77,1.46,1.46,0,0,1-1.88-1.19,1.54,1.54,0,0,1,1.24-1.93,1.61,1.61,0,0,1,1.2.22Z"/><path class="cls-9" d="M65.55,56.32a1.49,1.49,0,0,1-.81,2.06,1.47,1.47,0,0,1-2-.81,1.56,1.56,0,1,1,2.86-1.25m-2.34,1A1,1,0,1,0,65,56.56a1,1,0,1,0-1.82.79"/><polygon class="cls-9" points="65.64 54.42 67.05 56.49 68.34 55.62 68.63 56.05 66.87 57.25 65.17 54.74 65.64 54.42"/><path class="cls-9" d="M70.12,52.58a1.45,1.45,0,0,1,0,2.17l-.86.83-2.11-2.17.85-.84a1.45,1.45,0,0,1,2.13,0m-.84,2.21.44-.44a.89.89,0,0,0,0-1.37.9.9,0,0,0-1.34,0l-.45.44Z"/><path class="cls-11" d="M68.4,37.57A11.77,11.77,0,1,1,53,31.19,11.78,11.78,0,0,1,68.4,37.57"/></g><g class="cls-12"><rect class="cls-13" x="41.19" y="25.41" width="32.79" height="33.34" transform="translate(-10.86 62.12) rotate(-52.48)"/></g><g class="cls-3"><path class="cls-4" d="M61.91,52.54a11.33,11.33,0,1,1,6.14-14.79,11.33,11.33,0,0,1-6.14,14.79M53.36,31.87a11,11,0,1,0,14.43,6,11.05,11.05,0,0,0-14.43-6"/><path class="cls-4" d="M62.22,40.15a5,5,0,1,1-6.56-2.72,5,5,0,0,1,6.56,2.72"/><path class="cls-14" d="M61.34,40.52A4.07,4.07,0,1,1,56,38.32a4.06,4.06,0,0,1,5.31,2.2"/></g><g class="cls-15"><rect class="cls-16" x="45.54" y="29.83" width="24.08" height="24.48" transform="translate(-10.86 62.12) rotate(-52.48)"/></g><g class="cls-17"><rect class="cls-18" x="48.13" y="32.47" width="18.9" height="19.22" transform="matrix(0.61, -0.79, 0.79, 0.61, -10.86, 62.12)"/></g><g class="cls-19"><rect class="cls-20" x="43.07" y="27.32" width="29.03" height="29.51" transform="translate(-10.86 62.12) rotate(-52.48)"/></g><g class="cls-3"><path class="cls-21" d="M59.28,41.37a1.84,1.84,0,1,1-2.4-1,1.85,1.85,0,0,1,2.4,1"/><path class="cls-22" d="M70.67,27.93a3.67,3.67,0,1,1-3.56-3.77,3.68,3.68,0,0,1,3.56,3.77"/><path class="cls-23" d="M67.58,43.13a.46.46,0,0,1-.29-.11.48.48,0,0,1-.07-.69c.66-.82,2.42-3.45,1.75-4.71C68,35.8,66.53,33,66.52,33a.53.53,0,0,1-.06-.24l.05-1.52a.49.49,0,1,1,1,0l0,1.4,2.39,4.51c1.1,2.07-1.55,5.43-1.86,5.8a.46.46,0,0,1-.4.18"/><path class="cls-21" d="M70.44,27.93a3.44,3.44,0,1,1-3.33-3.54,3.44,3.44,0,0,1,3.33,3.54"/><rect class="cls-24" x="64.94" y="27.35" width="4.32" height="1.04" transform="translate(37.31 94.13) rotate(-88.34)"/><rect class="cls-25" x="66.25" y="30.2" width="1.53" height="1.04" transform="translate(34.37 96.82) rotate(-88.34)"/><path class="cls-25" d="M68.48,27.83A1.49,1.49,0,0,1,67,29.26a1.47,1.47,0,1,1,1.52-1.43"/><path class="cls-26" d="M68.17,27.82a1.17,1.17,0,1,1-2.33-.07,1.17,1.17,0,1,1,2.33.07"/><path class="cls-22" d="M67.8,27.81a.8.8,0,1,1-1.59,0,.8.8,0,1,1,1.59,0"/><polygon class="cls-27" points="67.68 25.72 68.14 25.42 68.15 25.08 66.21 25.02 66.2 25.35 66.64 25.69 67.68 25.72"/><rect class="cls-25" x="66.15" y="23.12" width="2.12" height="1.95" transform="translate(41.16 90.57) rotate(-88.32)"/><path class="cls-28" d="M69.92,28a.63.63,0,1,1-.61-.64.63.63,0,0,1,.61.64"/><path class="cls-22" d="M69.68,28a.39.39,0,0,1-.4.37.38.38,0,0,1-.38-.4.39.39,0,0,1,.4-.37.38.38,0,0,1,.38.4"/><rect class="cls-29" x="66.79" y="42.6" width="0.98" height="0.95" transform="translate(-7 72.48) rotate(-54.22)"/><rect class="cls-23" x="64.72" y="43.81" width="3.12" height="1.32" transform="translate(-8.55 72.27) rotate(-54.24)"/><polygon class="cls-30" points="67.95 43.05 67.1 42.44 67.2 42.31 68.04 42.92 67.95 43.05"/><rect class="cls-30" x="65.37" y="44.59" width="0.76" height="0.27" transform="translate(-9.01 71.82) rotate(-54.14)"/><rect class="cls-30" x="65.82" y="44.91" width="0.76" height="0.27" transform="translate(-9.09 72.31) rotate(-54.14)"/></g></g></g></svg>