<svg xmlns="http://www.w3.org/2000/svg" xmlns:xlink="http://www.w3.org/1999/xlink" viewBox="0 0 114.31 85.4"><defs><style>.cls-1,.cls-38{fill:none;}.cls-2{fill:#fff;}.cls-3{clip-path:url(#clip-path);}.cls-4{fill:url(#linear-gradient);}.cls-5{clip-path:url(#clip-path-2);}.cls-6{fill:url(#linear-gradient-2);}.cls-7{clip-path:url(#clip-path-3);}.cls-8{fill:url(#linear-gradient-3);}.cls-9{clip-path:url(#clip-path-4);}.cls-10{fill:url(#linear-gradient-4);}.cls-11{clip-path:url(#clip-path-5);}.cls-12{fill:url(#linear-gradient-5);}.cls-13{clip-path:url(#clip-path-6);}.cls-14{fill:url(#linear-gradient-6);}.cls-15{clip-path:url(#clip-path-7);}.cls-16{fill:url(#linear-gradient-7);}.cls-17{clip-path:url(#clip-path-8);}.cls-18{fill:url(#linear-gradient-8);}.cls-19{clip-path:url(#clip-path-9);}.cls-20{fill:url(#linear-gradient-9);}.cls-21{clip-path:url(#clip-path-10);}.cls-22{fill:url(#linear-gradient-10);}.cls-23{clip-path:url(#clip-path-11);}.cls-24{fill:url(#linear-gradient-11);}.cls-25{clip-path:url(#clip-path-12);}.cls-26{fill:url(#linear-gradient-12);}.cls-27{clip-path:url(#clip-path-13);}.cls-28{fill:url(#linear-gradient-13);}.cls-29{clip-path:url(#clip-path-14);}.cls-30{fill:url(#linear-gradient-14);}.cls-31{clip-path:url(#clip-path-15);}.cls-32{fill:url(#linear-gradient-15);}.cls-33{clip-path:url(#clip-path-16);}.cls-34{fill:url(#linear-gradient-16);}.cls-35{clip-path:url(#clip-path-17);}.cls-36{fill:url(#linear-gradient-17);}.cls-37{clip-path:url(#clip-path-18);}.cls-38{stroke:#fff;stroke-miterlimit:10;stroke-width:0.06px;}.cls-39{clip-path:url(#clip-path-19);}.cls-40{fill:url(#linear-gradient-18);}.cls-41{clip-path:url(#clip-path-20);}.cls-42{fill:url(#linear-gradient-19);}.cls-43{clip-path:url(#clip-path-21);}.cls-44{fill:url(#linear-gradient-20);}.cls-45{clip-path:url(#clip-path-22);}.cls-46{fill:url(#linear-gradient-21);}.cls-47{clip-path:url(#clip-path-23);}.cls-48{fill:url(#linear-gradient-22);}.cls-49{fill:#0071ce;}</style><clipPath id="clip-path"><path class="cls-1" d="M52.7,9.86a.47.47,0,0,0-.33.14l-.62.62a.51.51,0,0,0,0,.71l.33.32-.33,11.8h1.94l-.26-11.86.26-.26a.5.5,0,0,0,0-.71L53.08,10a.47.47,0,0,0-.33-.14Z"/></clipPath><linearGradient id="linear-gradient" x1="-126.31" y1="85.4" x2="-125.31" y2="85.4" gradientTransform="matrix(2.23, 0, 0, -2.23, 333.55, 207.29)" gradientUnits="userSpaceOnUse"><stop offset="0" stop-color="#00aeef"/><stop offset="1" stop-color="#005984"/></linearGradient><clipPath id="clip-path-2"><path class="cls-1" d="M54.3,22s2.57,1.11,3.22,3.24-.63,3.89-3.06,4.42v.72s3.17.58,4.31-2.31-1.3-6-4.47-6.93Z"/></clipPath><linearGradient id="linear-gradient-2" x1="-126.31" y1="85.34" x2="-125.31" y2="85.34" gradientTransform="matrix(4.75, 0, 0, -4.75, 654.74, 431.8)" xlink:href="#linear-gradient"/><clipPath id="clip-path-3"><path class="cls-1" d="M45.92,23a6.2,6.2,0,0,0,.49,7.7c1.77,1.78,8.46,4.54,10.68,5.68a6.18,6.18,0,0,1,3,7.14A8.13,8.13,0,0,1,52,49.37a10.59,10.59,0,0,1-7.63-3c-1.39-1.14-3.1-6.17.37-8.25a6,6,0,0,1,4.73-.25V36.74a7.61,7.61,0,0,0-4.86-.27c-2.65.74-5.14,4.1-3.36,8.27,1.58,3.73,6.89,5.49,9.26,5.59,3.6.16,7.29-.49,10-4.08s2.66-8,.43-10.37-8.4-4.7-8.4-4.7c-2.48-1.14-6.37-2.92-5.84-6.37s4.49-3.36,4.49-3.36v-.7c-1.51.07-3.92.33-5.34,2.24"/></clipPath><linearGradient id="linear-gradient-3" x1="-126.31" y1="85.4" x2="-125.31" y2="85.4" gradientTransform="matrix(21.98, 0, 0, -21.98, 2817.37, 1912.96)" xlink:href="#linear-gradient"/><clipPath id="clip-path-4"><path class="cls-1" d="M52.29,24.26a2.57,2.57,0,0,0-2.08,3c.24,1.67,1.07,1.6,1.07,1.32s-.53-4.46,3-2.8c0,0,.72.46.62,0a2.4,2.4,0,0,0-2.28-1.59,2.07,2.07,0,0,0-.35,0"/></clipPath><linearGradient id="linear-gradient-4" x1="-126.31" y1="85.39" x2="-125.31" y2="85.39" gradientTransform="matrix(4.75, 0, 0, -4.75, 650.34, 432.29)" xlink:href="#linear-gradient"/><clipPath id="clip-path-5"><path class="cls-1" d="M51.71,27.63V30l2,.9V26.09h0a1.83,1.83,0,0,0-1.93,1.54"/></clipPath><linearGradient id="linear-gradient-5" x1="-126.31" y1="85.4" x2="-125.31" y2="85.4" gradientTransform="matrix(1.99, 0, 0, -1.99, 302.87, 198.33)" xlink:href="#linear-gradient"/><clipPath id="clip-path-6"><path class="cls-1" d="M48.75,40h.14a2.58,2.58,0,0,1,1.88.61,2.49,2.49,0,0,1,.62,1.86,2.78,2.78,0,0,1-.17,1,2.58,2.58,0,0,1-.52.87,2.41,2.41,0,0,1-.81.63,2.27,2.27,0,0,1-1,.21,2.37,2.37,0,0,1-.52-.06,2.63,2.63,0,0,1-.52-.17L48,44l-1-.22.15-.62.92.24.11-.59-.94-.27.1-.53,1,.23.1-.68-1-.23.07-.56,1,.19Zm2.64,0a2.67,2.67,0,0,0-1-.59,3.53,3.53,0,0,0-1.23-.19,3.94,3.94,0,0,0-1.39.23,3.53,3.53,0,0,0-1.15.68,3.35,3.35,0,0,0-.15,4.82,3.14,3.14,0,0,0,2.33,1,3.08,3.08,0,0,0,1.52-.37,2.52,2.52,0,0,0,.94-.77l0,1.5,3,.18L54,35.54l-2.41-1.09Z"/></clipPath><linearGradient id="linear-gradient-6" x1="-126.31" y1="85.4" x2="-125.31" y2="85.4" gradientTransform="matrix(8.77, 0, 0, -8.77, 1152.75, 789.08)" xlink:href="#linear-gradient"/><clipPath id="clip-path-7"><path class="cls-1" d="M50.05,38a.54.54,0,0,0-.14.4.55.55,0,0,0,.14.41.58.58,0,0,0,.4.13.61.61,0,0,0,.41-.13.59.59,0,0,0,.13-.41.58.58,0,0,0-.13-.4.56.56,0,0,0-.41-.14.54.54,0,0,0-.4.14"/></clipPath><linearGradient id="linear-gradient-7" x1="-126.31" y1="85.4" x2="-125.31" y2="85.4" gradientTransform="matrix(1.08, 0, 0, -1.08, 185.71, 130.17)" xlink:href="#linear-gradient"/><clipPath id="clip-path-8"><path class="cls-1" d="M50.15,36.36a.54.54,0,0,0-.14.4.55.55,0,0,0,.14.41.61.61,0,0,0,.41.13.58.58,0,0,0,.4-.13.59.59,0,0,0,.13-.41.58.58,0,0,0-.13-.4.54.54,0,0,0-.4-.14.56.56,0,0,0-.41.14"/></clipPath><linearGradient id="linear-gradient-8" x1="-126.31" y1="85.4" x2="-125.31" y2="85.4" gradientTransform="matrix(1.08, 0, 0, -1.08, 185.81, 128.58)" xlink:href="#linear-gradient"/><clipPath id="clip-path-9"><path class="cls-1" d="M50.21,34.83a.56.56,0,0,0-.13.41.52.52,0,0,0,.13.4.56.56,0,0,0,.41.13.54.54,0,0,0,.4-.13.52.52,0,0,0,.13-.4.56.56,0,0,0-.13-.41.54.54,0,0,0-.4-.13.56.56,0,0,0-.41.13"/></clipPath><linearGradient id="linear-gradient-9" x1="-126.31" y1="85.4" x2="-125.31" y2="85.4" gradientTransform="matrix(1.08, 0, 0, -1.08, 185.88, 127.05)" xlink:href="#linear-gradient"/><clipPath id="clip-path-10"><rect class="cls-1" x="53.25" y="12.08" width="0.81" height="0.26"/></clipPath><linearGradient id="linear-gradient-10" x1="-126.31" y1="85.4" x2="-125.31" y2="85.4" gradientTransform="matrix(0.81, 0, 0, -0.81, 156.03, 81.7)" xlink:href="#linear-gradient"/><clipPath id="clip-path-11"><path class="cls-1" d="M53.85,12.21c0,.15.18.28.41.28s.41-.13.41-.28-.19-.29-.41-.29-.41.13-.41.29"/></clipPath><linearGradient id="linear-gradient-11" x1="-126.31" y1="85.4" x2="-125.31" y2="85.4" gradientTransform="matrix(0.81, 0, 0, -0.81, 156.63, 81.7)" xlink:href="#linear-gradient"/><clipPath id="clip-path-12"><rect class="cls-1" x="53.36" y="13.21" width="0.81" height="0.26"/></clipPath><linearGradient id="linear-gradient-12" x1="-126.31" y1="85.4" x2="-125.31" y2="85.4" gradientTransform="matrix(0.81, 0, 0, -0.81, 156.14, 82.83)" xlink:href="#linear-gradient"/><clipPath id="clip-path-13"><path class="cls-1" d="M54,13.34c0,.16.18.28.4.28s.41-.12.41-.28-.18-.28-.41-.28-.4.12-.4.28"/></clipPath><linearGradient id="linear-gradient-13" x1="-126.31" y1="85.4" x2="-125.31" y2="85.4" gradientTransform="matrix(0.81, 0, 0, -0.81, 156.74, 82.83)" xlink:href="#linear-gradient"/><clipPath id="clip-path-14"><rect class="cls-1" x="51.46" y="11.66" width="0.81" height="0.26"/></clipPath><linearGradient id="linear-gradient-14" x1="-126.31" y1="85.4" x2="-125.31" y2="85.4" gradientTransform="matrix(0.81, 0, 0, -0.81, 154.24, 81.29)" xlink:href="#linear-gradient"/><clipPath id="clip-path-15"><path class="cls-1" d="M50.86,11.79c0,.16.18.29.4.29s.41-.13.41-.29-.18-.28-.41-.28-.4.13-.4.28"/></clipPath><linearGradient id="linear-gradient-15" x1="-126.31" y1="85.4" x2="-125.31" y2="85.4" gradientTransform="matrix(0.81, 0, 0, -0.81, 153.64, 81.29)" xlink:href="#linear-gradient"/><clipPath id="clip-path-16"><rect class="cls-1" x="51.35" y="12.65" width="0.81" height="0.26"/></clipPath><linearGradient id="linear-gradient-16" x1="-126.31" y1="85.4" x2="-125.31" y2="85.4" gradientTransform="matrix(0.81, 0, 0, -0.81, 154.14, 82.27)" xlink:href="#linear-gradient"/><clipPath id="clip-path-17"><path class="cls-1" d="M50.75,12.78c0,.16.18.28.41.28s.4-.12.4-.28-.18-.29-.4-.29-.41.13-.41.29"/></clipPath><linearGradient id="linear-gradient-17" x1="-126.31" y1="85.4" x2="-125.31" y2="85.4" gradientTransform="matrix(0.81, 0, 0, -0.81, 153.53, 82.27)" xlink:href="#linear-gradient"/><clipPath id="clip-path-18"><rect class="cls-1" x="9.92" y="9.86" width="94.47" height="65.69"/></clipPath><clipPath id="clip-path-19"><path class="cls-1" d="M28.4,50.82c-1.64,1.36-1.94,3.39-2.26,5.54a12.52,12.52,0,0,1-1.87,5.76c-2.84,3.95-6.53,5-8.82,4.68a4,4,0,0,1-3.34-2.21c-1-2.24,0-5.7,1.51-8,1.73-2.59,4.81-5.26,7.82-4.24A2.79,2.79,0,0,1,23.17,54a7.35,7.35,0,0,1-.28,5.33c-1.24,3.25-4.16,5.15-6.11,4.88A2.06,2.06,0,0,1,15,62.07a6.75,6.75,0,0,1,2.88-5.73,1.08,1.08,0,0,0,.54-1,.48.48,0,0,0-.3-.38c-.18-.07-.57-.09-1.19.45A7.5,7.5,0,0,0,14.31,62a2.92,2.92,0,0,0,2.54,2.69c2,.23,5-1.51,6.59-5.2,1.24-2.91,1.1-6.48-1.58-7.66-4-1.77-8.32,1.08-10.54,4.81a9.82,9.82,0,0,0-1.4,4.9v0a6.43,6.43,0,0,0,.77,3.16c.7,1.23,2.22,2.69,5.48,2.69A13.42,13.42,0,0,0,26,62.53a12,12,0,0,0,2.12-6.82c.14-1.71.26-3.18,1.18-4.31a1.78,1.78,0,0,1,2-.86,1.29,1.29,0,0,1,.93.63.91.91,0,0,1,0,.77,1.29,1.29,0,0,0-.35,0,1.42,1.42,0,0,0-1.43,1,.77.77,0,0,0,.17.66,1.2,1.2,0,0,0,.93.38,1.92,1.92,0,0,0,1.82-1.82A2.25,2.25,0,0,0,31.23,50l-.48,0a3.24,3.24,0,0,0-2.35.89"/></clipPath><linearGradient id="linear-gradient-18" x1="-126.31" y1="85.4" x2="-125.31" y2="85.4" gradientTransform="matrix(0, 6.79, 6.79, 0, -558.04, 914.49)" xlink:href="#linear-gradient"/><clipPath id="clip-path-20"><path class="cls-1" d="M29.45,63.26c-.17-.29,0-1.21.94-2.92,1.08-2,2.39-3.05,2.88-3.07a.17.17,0,0,1,.17.09c.18.29,0,1.29-.91,2.85-1.05,1.9-2.31,3.17-2.82,3.17a.29.29,0,0,1-.26-.12m13.71,0c-.16-.28,0-1.2,1-2.92,1.08-2,2.4-3.05,2.89-3.07a.16.16,0,0,1,.16.09c.18.29,0,1.29-.9,2.85-1,1.9-2.32,3.17-2.84,3.17a.26.26,0,0,1-.26-.12m-3.63-8.48a2.2,2.2,0,0,0-1.72,1.42,1.12,1.12,0,0,0,.27,1.25A24.36,24.36,0,0,1,36,60.94a9.12,9.12,0,0,1-1.66,1.68c-.91.64-1.22.7-1.3.7h0s-.06-.13.24-.66l3.35-6h-.23a2.48,2.48,0,0,0-2.32,1,1,1,0,0,0-.87-1.09c-2-.35-4.05,2.31-4.85,3.77-.71,1.28-.91,2.53-.5,3.25a1.29,1.29,0,0,0,1.17.64,3.46,3.46,0,0,0,2.4-1.29,1.38,1.38,0,0,0,.23.95.91.91,0,0,0,.72.34c1.2,0,2.93-1.34,4.33-3.31a22.07,22.07,0,0,0,1.86-3l.27.19c.66.5.61.89.26,1.56l-.9,1.59c-.84,1.43-.66,2.18-.48,2.5a.91.91,0,0,0,.79.45c.8,0,1.66-.54,2.89-1.81a2,2,0,0,0,.17,1.11,1.38,1.38,0,0,0,1.18.7,2.43,2.43,0,0,0,1.75-.7l-.5.89c-2.19,3.82-4.9,8.58-8.41,9.93-2.14.83-4,.93-5.32.27A3.7,3.7,0,0,1,28.39,72l0-.13-.13,0a1,1,0,0,0-.71.64,1.29,1.29,0,0,0,.29,1.1A5.16,5.16,0,0,0,32,75.55a11.9,11.9,0,0,0,3.82-.77c3.67-1.29,7-4.75,10.48-10.88l4-7.29H50.1a2.47,2.47,0,0,0-2.32,1,1,1,0,0,0-.85-1.09c-2-.34-4,2.31-4.85,3.77a6.21,6.21,0,0,0-.48,1.07,10.82,10.82,0,0,1-1.36,1.36,3.38,3.38,0,0,1-1.11.7s0-.13.29-.71l.92-1.58c1-1.84-.08-2.67-.56-3l-1-.72A14.55,14.55,0,0,0,39.66,55l.05-.17Z"/></clipPath><linearGradient id="linear-gradient-19" x1="-126.31" y1="85.39" x2="-125.31" y2="85.39" gradientTransform="matrix(0, 6.79, 6.79, 0, -540.79, 914.49)" xlink:href="#linear-gradient"/><clipPath id="clip-path-21"><path class="cls-1" d="M50.65,63.26c-.18-.29,0-1.21.93-2.92,1.08-2,2.39-3.05,2.88-3.07a.2.2,0,0,1,.18.09c.17.29,0,1.29-.92,2.85-1,1.9-2.3,3.17-2.81,3.17a.26.26,0,0,1-.26-.12m7.78,0c-.17-.29,0-1.21.93-2.92,1.09-2,2.4-3.05,2.89-3.07a.17.17,0,0,1,.17.09c.18.29,0,1.29-.91,2.85-1,1.9-2.31,3.17-2.82,3.17a.29.29,0,0,1-.26-.12m3.62.05s-.1-.1.2-.65l3.19-5.72c2.26-4.08,5.07-9.16,8.79-10.59a8.33,8.33,0,0,1,4.12-.64l-.33.11c-3.66,1.29-7.1,4.85-10.52,10.88l-2.44,4.39a11.57,11.57,0,0,1-1.53,1.53,3.11,3.11,0,0,1-1.39.71s-.07,0-.09,0m17.6-18a9.19,9.19,0,0,0-5.68.48c-3.65,1.29-7.09,4.85-10.52,10.88l-.41.75a1,1,0,0,0-.86-1c-2-.35-4,2.31-4.85,3.77a6.27,6.27,0,0,0-.5,1.15,8,8,0,0,1-1.29,1.23c-.91.64-1.21.7-1.29.7h0s0-.13.25-.66l3.34-6h-.23a2.5,2.5,0,0,0-2.32,1,1,1,0,0,0-.87-1.09c-2-.35-4,2.31-4.85,3.77a3.66,3.66,0,0,0-.5,3.25,1.31,1.31,0,0,0,1.17.64,3.46,3.46,0,0,0,2.4-1.29,1.38,1.38,0,0,0,.23.95.91.91,0,0,0,.72.34,5,5,0,0,0,3.07-1.8,2.11,2.11,0,0,0,.2,1.16,1.29,1.29,0,0,0,1.17.64,3.49,3.49,0,0,0,2.4-1.27,1.52,1.52,0,0,0,.11.74.94.94,0,0,0,.64.53,1.53,1.53,0,0,0,.3,0,4.75,4.75,0,0,0,2.25-1c.17-.14.37-.32.59-.54a1.12,1.12,0,0,0,.08.84,1.21,1.21,0,0,0,1.07.52h.08l2.35-4.18A6.74,6.74,0,0,1,69.48,58c.87-.7,1.3-.78,1.36-.73s.09.11-.22.67l-1.78,3.19c-.8,1.46-.61,2.21-.42,2.53a.91.91,0,0,0,.79.44,4.86,4.86,0,0,0,3-1.69,1.32,1.32,0,0,0,.5,1.46c.94.63,2.54-.11,3.74-1.18a1.49,1.49,0,0,0,.22,1,1,1,0,0,0,.82.39h.16a6.7,6.7,0,0,0,3.24-1.55,6.14,6.14,0,0,0,2.35-4.23A4.54,4.54,0,0,0,81.83,55c-.1-.09-.29-.19-.41-.09s-.12.14,0,.33c.61.93.46,2.9-.36,4.59-1,2-2.64,3.78-3.65,3.78-.08,0-.1,0-.11,0s-.1-.22.23-.87l2.2-4a1.53,1.53,0,0,0,.18-1.48,1.18,1.18,0,0,0-1.06-.5h-.08l-1.94,3.49c-.7,1.28-2.28,3.21-3,3.21-.06,0-.1,0-.12,0s-.06-.22.22-.78l2.24-4a1.47,1.47,0,0,0,.2-1.47,1.17,1.17,0,0,0-1.06-.51h-.07l-2.36,4.23c0,.11-.12.22-.18.35a9.1,9.1,0,0,1-1.46,1.43c-.91.66-1.27.72-1.32.69s-.06-.11.24-.65l1.78-3.22c.79-1.44.59-2.19.4-2.51a.9.9,0,0,0-.79-.46,4.43,4.43,0,0,0-2.41,1.17l.39-.7c2.26-4.08,5.08-9.16,8.79-10.59q.56-.21,1.08-.36l.2.09a3.8,3.8,0,0,1,1.87,2.56l0,.14.13,0a1,1,0,0,0,.7-.64A1.25,1.25,0,0,0,82,47a5.09,5.09,0,0,0-1.47-1.27,5.1,5.1,0,0,1,3.06.35,3.78,3.78,0,0,1,1.88,2.56l0,.14.14,0a1,1,0,0,0,.7-.64,1.28,1.28,0,0,0-.29-1.1,5.13,5.13,0,0,0-4.21-1.94,9.46,9.46,0,0,0-2.19.28"/></clipPath><linearGradient id="linear-gradient-20" x1="-126.31" y1="85.39" x2="-125.31" y2="85.39" gradientTransform="matrix(0, 6.79, 6.79, 0, -512.09, 914.49)" xlink:href="#linear-gradient"/><clipPath id="clip-path-22"><path class="cls-1" d="M102.12,54.64a.88.88,0,0,0,.2.68,1,1,0,0,0,.79.33,1.3,1.3,0,0,0,1.27-1s0-.07,0-.11v0a.91.91,0,0,0-.21-.54,1,1,0,0,0-.77-.33,1.36,1.36,0,0,0-1.29,1"/></clipPath><linearGradient id="linear-gradient-21" x1="-126.31" y1="85.4" x2="-125.31" y2="85.4" gradientTransform="matrix(0, 6.79, 6.79, 0, -476.44, 914.49)" xlink:href="#linear-gradient"/><clipPath id="clip-path-23"><path class="cls-1" d="M84.78,63.26c-.17-.29,0-1.21.93-2.92,1.08-2,2.4-3.05,2.89-3.07a.18.18,0,0,1,.17.09c.17.29,0,1.29-.91,2.85-1,1.9-2.31,3.17-2.82,3.17a.26.26,0,0,1-.26-.12m-1.11-3a3.66,3.66,0,0,0-.5,3.25,1.32,1.32,0,0,0,1.18.64,3.48,3.48,0,0,0,2.4-1.29,1.28,1.28,0,0,0,.23.95.89.89,0,0,0,.72.34,4.55,4.55,0,0,0,2.73-1.47,1.14,1.14,0,0,0,.09.83,1.2,1.2,0,0,0,1.06.51h.08L94,59.82A8,8,0,0,1,95.61,58c.88-.7,1.31-.78,1.37-.73s.09.11-.23.67L95,61.16c-.8,1.46-.6,2.21-.41,2.53a.88.88,0,0,0,.79.44,4.82,4.82,0,0,0,2.92-1.65,1.61,1.61,0,0,0,.1,1.2.88.88,0,0,0,.79.45c1.42,0,3.51-1.8,5-4.29a.28.28,0,0,0,0-.29.21.21,0,0,0-.19-.1.25.25,0,0,0-.21.16,11.24,11.24,0,0,1-2.58,3c-.94.66-1.28.73-1.34.69s-.06-.11.24-.65l2.25-4a1.47,1.47,0,0,0,.17-1.48,1.26,1.26,0,0,0-1.08-.52h-.08l-2.51,4.55a9.94,9.94,0,0,1-1.48,1.46c-.92.66-1.27.72-1.32.69s-.06-.11.24-.65L98,59.44c.79-1.44.59-2.19.4-2.51a.9.9,0,0,0-.79-.46,5,5,0,0,0-2.72,1.43,1,1,0,0,0-.11-.78,1.23,1.23,0,0,0-1.06-.51h-.08l-2.5,4.54a8.88,8.88,0,0,1-1.49,1.47c-.91.64-1.22.7-1.3.7h0s-.06-.13.24-.66l3.35-6h-.23a2.5,2.5,0,0,0-2.33,1,1,1,0,0,0-.86-1.09,2.31,2.31,0,0,0-.37,0c-1.88,0-3.73,2.43-4.49,3.8"/></clipPath><linearGradient id="linear-gradient-22" x1="-126.31" y1="85.39" x2="-125.31" y2="85.39" gradientTransform="matrix(0, 6.79, 6.79, 0, -486.12, 914.49)" xlink:href="#linear-gradient"/></defs><title>Asset 2</title><g id="Layer_2" data-name="Layer 2"><g id="Layer_1-2" data-name="Layer 1"><rect class="cls-2" width="114.31" height="85.4"/><g class="cls-3"><rect class="cls-4" x="51.56" y="9.86" width="2.33" height="13.6"/></g><g class="cls-5"><rect class="cls-6" x="54.3" y="21.17" width="5.6" height="9.82"/></g><g class="cls-7"><rect class="cls-8" x="39.5" y="20.75" width="23.83" height="29.74"/></g><g class="cls-9"><rect class="cls-10" x="49.96" y="24.16" width="5.05" height="4.8"/></g><g class="cls-11"><rect class="cls-12" x="51.71" y="26.09" width="1.99" height="4.85"/></g><g class="cls-13"><rect class="cls-14" x="45.53" y="34.45" width="8.77" height="12.01"/></g><g class="cls-15"><rect class="cls-16" x="49.91" y="37.81" width="1.08" height="1.08"/></g><g class="cls-17"><rect class="cls-18" x="50.01" y="36.22" width="1.07" height="1.08"/></g><g class="cls-19"><rect class="cls-20" x="50.08" y="34.7" width="1.07" height="1.07"/></g><g class="cls-21"><rect class="cls-22" x="53.25" y="12.08" width="0.81" height="0.26"/></g><g class="cls-23"><rect class="cls-24" x="53.85" y="11.92" width="0.81" height="0.57"/></g><g class="cls-25"><rect class="cls-26" x="53.35" y="13.21" width="0.81" height="0.26"/></g><g class="cls-27"><rect class="cls-28" x="53.96" y="13.06" width="0.81" height="0.57"/></g><g class="cls-29"><rect class="cls-30" x="51.46" y="11.66" width="0.81" height="0.26"/></g><g class="cls-31"><rect class="cls-32" x="50.86" y="11.51" width="0.81" height="0.57"/></g><g class="cls-33"><rect class="cls-34" x="51.35" y="12.65" width="0.81" height="0.26"/></g><g class="cls-35"><rect class="cls-36" x="50.75" y="12.49" width="0.81" height="0.57"/></g><g class="cls-37"><path class="cls-38" d="M52.33,14v8.24M52.6,14v8.24M52.87,14v8.24M53.14,14v8.24"/></g><g class="cls-39"><rect class="cls-40" x="9.92" y="49.93" width="23.51" height="17.51"/></g><g class="cls-41"><rect class="cls-42" x="27.39" y="54.78" width="22.93" height="20.76"/></g><g class="cls-43"><rect class="cls-44" x="48.64" y="44.71" width="37.82" height="19.82"/></g><g class="cls-45"><rect class="cls-46" x="102.09" y="53.67" width="2.3" height="1.98"/></g><g class="cls-47"><rect class="cls-48" x="82.77" y="56.44" width="21.42" height="7.69"/></g><g class="cls-37"><polygon class="cls-49" points="49.02 68.8 47.91 68.8 47.91 69.66 49.15 69.66 49.15 70.1 47.37 70.1 47.37 67.16 49.08 67.16 49.08 67.6 47.91 67.6 47.91 68.36 49.02 68.36 49.02 68.8"/><path class="cls-49" d="M50.67,70.1l-1-2.94h.59l.4,1.34c.11.37.21.71.29,1.07h0a8.42,8.42,0,0,1,.3-1.06l.42-1.35h.58l-1,2.94Z"/><polygon class="cls-49" points="54.62 68.8 53.51 68.8 53.51 69.66 54.75 69.66 54.75 70.1 52.97 70.1 52.97 67.16 54.68 67.16 54.68 67.6 53.51 67.6 53.51 68.36 54.62 68.36 54.62 68.8"/><path class="cls-49" d="M55.57,67.2a5.73,5.73,0,0,1,.81-.06,1.36,1.36,0,0,1,.91.24.73.73,0,0,1,.25.58.79.79,0,0,1-.53.74h0a.78.78,0,0,1,.41.57,5.56,5.56,0,0,0,.23.82h-.56a4.75,4.75,0,0,1-.19-.69c-.09-.39-.22-.51-.53-.52H56.1V70.1h-.53Zm.53,1.3h.32c.36,0,.59-.19.59-.48s-.23-.47-.58-.47a2,2,0,0,0-.33,0Z"/><path class="cls-49" d="M60.75,70a2.91,2.91,0,0,1-.94.16,1.58,1.58,0,0,1-1.16-.39,1.56,1.56,0,0,1,1.23-2.61,2,2,0,0,1,.78.14l-.12.43a1.55,1.55,0,0,0-.66-.12,1.06,1.06,0,0,0-.05,2.12,1.11,1.11,0,0,0,.4-.06V68.9h-.52v-.42h1Z"/><path class="cls-49" d="M61.65,67.2a5.73,5.73,0,0,1,.81-.06,1.34,1.34,0,0,1,.91.24.73.73,0,0,1,.25.58.78.78,0,0,1-.53.74h0a.75.75,0,0,1,.41.57,5.56,5.56,0,0,0,.23.82h-.55a3.43,3.43,0,0,1-.2-.69c-.08-.39-.22-.51-.53-.52h-.27V70.1h-.53Zm.53,1.3h.32c.36,0,.59-.19.59-.48s-.23-.47-.58-.47a2.06,2.06,0,0,0-.33,0Z"/><polygon class="cls-49" points="66.13 68.8 65.02 68.8 65.02 69.66 66.26 69.66 66.26 70.1 64.48 70.1 64.48 67.16 66.19 67.16 66.19 67.6 65.02 67.6 65.02 68.36 66.13 68.36 66.13 68.8"/><polygon class="cls-49" points="68.72 68.8 67.61 68.8 67.61 69.66 68.85 69.66 68.85 70.1 67.08 70.1 67.08 67.16 68.79 67.16 68.79 67.6 67.61 67.6 67.61 68.36 68.72 68.36 68.72 68.8"/><path class="cls-49" d="M69.67,70.1V67.16h.61L71,68.42a7.08,7.08,0,0,1,.5,1h0c0-.39,0-.77,0-1.22v-1H72V70.1h-.55l-.77-1.29a9.86,9.86,0,0,1-.53-1h0c0,.38,0,.77,0,1.25v1Z"/><polygon class="cls-49" points="74.76 67.16 74.76 68.34 76 68.34 76 67.16 76.54 67.16 76.54 70.1 76 70.1 76 68.81 74.76 68.81 74.76 70.1 74.22 70.1 74.22 67.16 74.76 67.16"/><rect class="cls-49" x="77.5" y="67.16" width="0.54" height="2.94"/><polygon class="cls-49" points="79.56 67.61 78.73 67.61 78.73 67.16 80.94 67.16 80.94 67.61 80.1 67.61 80.1 70.1 79.56 70.1 79.56 67.61"/><path class="cls-49" d="M81.59,69.52a1.49,1.49,0,0,0,.71.18c.35,0,.54-.16.54-.4s-.15-.35-.53-.49-.79-.43-.79-.85.4-.85,1-.85a1.57,1.57,0,0,1,.71.15l-.14.43a1.31,1.31,0,0,0-.58-.14c-.34,0-.49.19-.49.36s.17.33.56.48.76.45.76.87-.35.88-1.11.88a1.72,1.72,0,0,1-.8-.18Z"/></g></g></g></svg>