<svg xmlns="http://www.w3.org/2000/svg" xmlns:xlink="http://www.w3.org/1999/xlink" viewBox="0 0 114.31 85.4"><defs><style>.cls-1{fill:none;}.cls-2{fill:#fff;}.cls-3{clip-path:url(#clip-path);}.cls-4{fill:#5e9044;}.cls-5{clip-path:url(#clip-path-2);}.cls-6{clip-path:url(#clip-path-9);}.cls-7{fill:url(#radial-gradient);}.cls-8{clip-path:url(#clip-path-10);}.cls-9{fill:url(#radial-gradient-2);}.cls-10{clip-path:url(#clip-path-11);}.cls-11{fill:url(#radial-gradient-3);}.cls-12{clip-path:url(#clip-path-12);}.cls-13{fill:url(#radial-gradient-4);}.cls-14{clip-path:url(#clip-path-13);}.cls-15{fill:url(#radial-gradient-5);}.cls-16{clip-path:url(#clip-path-14);}.cls-17{fill:url(#radial-gradient-6);}.cls-18{clip-path:url(#clip-path-15);}.cls-19{fill:url(#radial-gradient-7);}.cls-20{clip-path:url(#clip-path-16);}.cls-21{fill:url(#radial-gradient-8);}.cls-22{clip-path:url(#clip-path-17);}.cls-23{fill:url(#radial-gradient-9);}.cls-24{clip-path:url(#clip-path-18);}.cls-25{fill:url(#radial-gradient-10);}.cls-26{clip-path:url(#clip-path-19);}.cls-27{fill:url(#radial-gradient-11);}.cls-28{clip-path:url(#clip-path-20);}.cls-29{fill:url(#radial-gradient-12);}.cls-30{clip-path:url(#clip-path-21);}.cls-31{fill:url(#radial-gradient-13);}</style><clipPath id="clip-path"><rect class="cls-1" x="15.4" y="6.6" width="83.52" height="71.92"/></clipPath><clipPath id="clip-path-2"><rect class="cls-1" x="14.75" y="5.58" width="84.8" height="74.24"/></clipPath><clipPath id="clip-path-9"><path class="cls-1" d="M57.28,10.58a2.72,2.72,0,0,0-.85.12c-1.51.53-1.19,1.58-1.19,1.58a3,3,0,0,0-.55.76,1.7,1.7,0,0,1,1-.37,1.51,1.51,0,0,0,1.35-.2c3.53.27,4.77,3.16,1.88,5.68s-6.15.92-10.39,3.54a8.8,8.8,0,0,0-4.13,7.24c.74-1.92,2.34-2.34,5.42-2.47s6.28.29,10.06-2.41,3.72-7.36,2.6-10a6.06,6.06,0,0,0-5.21-3.42h0"/></clipPath><radialGradient id="radial-gradient" cx="0" cy="85.4" r="1" gradientTransform="translate(3557.57 9.56) rotate(90) scale(40.96)" gradientUnits="userSpaceOnUse"><stop offset="0" stop-color="#c26128"/><stop offset="0.19" stop-color="#f8ed37"/><stop offset="0.38" stop-color="#5b4a78"/><stop offset="0.58" stop-color="#089948"/><stop offset="0.74" stop-color="#2f4b9e"/><stop offset="0.88" stop-color="#33479b"/><stop offset="1" stop-color="#26225b"/></radialGradient><clipPath id="clip-path-10"><path class="cls-1" d="M47.12,33c2.26,1.12,3.58-1.19,2.34-2.2S46.1,31,46,28.7c0,0-1.32,3.08,1.13,4.29"/></clipPath><radialGradient id="radial-gradient-2" cy="85.4" gradientTransform="translate(3562.16 13.68) rotate(90) scale(40.96)" xlink:href="#radial-gradient"/><clipPath id="clip-path-11"><path class="cls-1" d="M45.26,33.82c.46,1.86,3.69,4.31,5.3,4.56a1.79,1.79,0,0,0,1.94-2.82c-1.16-1.69-2.94-.8-5.22-1.93a3.93,3.93,0,0,1-2.11-4,9.76,9.76,0,0,0,.09,4.22m-.09-4.22h0m0,0h0"/></clipPath><radialGradient id="radial-gradient-3" cy="85.4" gradientTransform="matrix(0, 40.96, -40.96, 0, 3563.56, 13.34)" xlink:href="#radial-gradient"/><clipPath id="clip-path-12"><path class="cls-1" d="M44.44,31.66q0-.66,0-1.47a11.07,11.07,0,0,0,0,1.47M62,28.7c-1.11,0-2.62,1-3.13,4.62S55.63,39,54.53,39.14s-4.68,1-7.57-1.61a9,9,0,0,1-2.52-5.87,9.32,9.32,0,0,0,1.74,5.87,9.92,9.92,0,0,0,7.15,3.9c2.76.14,6.52-.78,8.12-2.52a12.31,12.31,0,0,0,2.8-6.83c.09-2-1.13-3.38-2.22-3.38h0"/></clipPath><radialGradient id="radial-gradient-4" cy="85.4" gradientTransform="matrix(0, 40.96, -40.96, 0, 3564.58, 11.06)" xlink:href="#radial-gradient"/><clipPath id="clip-path-13"><path class="cls-1" d="M67.76,23.08c-.89,1-.82,5.85-.82,5.85s0,7-4.41,10.53-10.25,2.68-10.25,2.68a17.62,17.62,0,0,0,13.42-2.4c2.47-1.59,5.09-5.72,6.12-8.19s1.65-6.81.48-8.47a2.39,2.39,0,0,0-2-1,3.64,3.64,0,0,0-2.5,1"/></clipPath><radialGradient id="radial-gradient-5" cy="85.4" gradientTransform="translate(3564.47 6.95) rotate(90) scale(40.96)" xlink:href="#radial-gradient"/><clipPath id="clip-path-14"><path class="cls-1" d="M72.51,32.35c-1,1.61-1.4,3.71-3.79,6.07a12.24,12.24,0,0,1-5.23,3,17.13,17.13,0,0,0,7.51-3c3.3-2.54,4.67-5.57,4.19-6.87-.19-.52-.49-.75-.85-.75-.56,0-1.25.57-1.83,1.55"/></clipPath><radialGradient id="radial-gradient-6" cy="85.4" gradientTransform="translate(3566.69 4.26) rotate(90) scale(40.96)" xlink:href="#radial-gradient"/><clipPath id="clip-path-15"><path class="cls-1" d="M75.45,23.41c-1.7,1.66-2,5.33-2,5.33a3.12,3.12,0,0,1,2.22-2.13c2-.73,2.36-.78,2.69-1.73a1.65,1.65,0,0,0-2.87-1.47"/></clipPath><radialGradient id="radial-gradient-7" cy="85.4" gradientTransform="translate(3558.23 0.25) rotate(90) scale(40.91)" xlink:href="#radial-gradient"/><clipPath id="clip-path-16"><path class="cls-1" d="M73.84,37.82h-.23a6.81,6.81,0,0,0-3.19,2,2.06,2.06,0,0,1,2-.23c1.33.41,1.5.5,2.1.17a1.09,1.09,0,0,0-.69-1.93h0"/></clipPath><radialGradient id="radial-gradient-8" cy="85.4" gradientTransform="translate(3568.32 3.12) rotate(90) scale(40.96)" xlink:href="#radial-gradient"/><clipPath id="clip-path-17"><path class="cls-1" d="M70.1,40.7a38.85,38.85,0,0,0-9,2.2s6-2,11,.33c4.09,1.89,5.17,2.68,6.51,2.27a1.61,1.61,0,0,0,.83-2.6c-.54-.78-3.51-2.3-7.51-2.3a15.67,15.67,0,0,0-1.78.1"/></clipPath><radialGradient id="radial-gradient-9" cy="85.4" gradientTransform="matrix(0, 40.96, -40.96, 0, 3570.03, 4.6)" xlink:href="#radial-gradient"/><clipPath id="clip-path-18"><path class="cls-1" d="M63.81,42.6c1.64.09,3.49.18,4.78,1.19,2.54,2,3,3.88,4.08,3.86a1,1,0,0,0,1-1.52,6.21,6.21,0,0,0-3-2.61,11.68,11.68,0,0,0-5-1,13.14,13.14,0,0,0-1.88.12"/></clipPath><radialGradient id="radial-gradient-10" cy="85.4" gradientTransform="matrix(0, 40.96, -40.96, 0, 3570.69, 5.47)" xlink:href="#radial-gradient"/><clipPath id="clip-path-19"><path class="cls-1" d="M56.43,7.14c.17.17,1,.48,1.23,1.2a2.07,2.07,0,0,1-.56,2.23,2.26,2.26,0,0,0,1.11-2.16c-.26-1.33-1-1.75-1.37-1.81h-.06c-.32,0-.51.38-.35.54"/></clipPath><radialGradient id="radial-gradient-11" cy="85.4" gradientTransform="translate(3552.87 6.8) rotate(90) scale(40.96)" xlink:href="#radial-gradient"/><clipPath id="clip-path-20"><path class="cls-1" d="M54.85,7.86c0,.27.39.24.95.28a1.79,1.79,0,0,1,1.08.53,3.52,3.52,0,0,1,.22,1.9,2.92,2.92,0,0,0,.12-2.1,2,2,0,0,0-1.55-1.15h0c-.44,0-.84.28-.78.54"/></clipPath><radialGradient id="radial-gradient-12" cy="85.4" gradientTransform="translate(3552.91 7.36) rotate(90) scale(40.96)" xlink:href="#radial-gradient"/><clipPath id="clip-path-21"><path class="cls-1" d="M55,8.58a1.4,1.4,0,0,0-.78,1.16c0,.33.16.5.31.45s.3-.87.61-1.06a1.17,1.17,0,0,1,1.47.2A2.58,2.58,0,0,1,57,10.5s.05-1.14-.52-1.55a1.9,1.9,0,0,0-1.11-.43,1.52,1.52,0,0,0-.42.06"/></clipPath><radialGradient id="radial-gradient-13" cy="85.4" gradientTransform="translate(3553.1 7.71) rotate(90) scale(40.96)" xlink:href="#radial-gradient"/></defs><title>Asset 1</title><g id="Layer_2" data-name="Layer 2"><g id="Layer_1-2" data-name="Layer 1"><rect class="cls-2" width="114.31" height="85.4"/><g class="cls-3"><path class="cls-4" d="M37.05,75.13a3.18,3.18,0,0,1,1.87-2A5.81,5.81,0,0,1,42.74,73l1,.29c.75.22,1.14.22,1.37,0a.34.34,0,0,0,0-.4s0-.06.05,0a.4.4,0,0,1-.05.46,1.23,1.23,0,0,1-.93.29,6.65,6.65,0,0,1-1.08-.16l-.38-.08a4.08,4.08,0,0,0-.46.73l-.57,1a4.91,4.91,0,0,1-2.63,2.4,3.31,3.31,0,0,1-.42.12,1.58,1.58,0,0,0,2.5.3c.08-.1.11,0,0,0a1.79,1.79,0,0,1-2.79-.28,1.76,1.76,0,0,1-1.73-.48c-.11-.13-.15-.35.09-.43.2.76.9.92,1.58.83a2.51,2.51,0,0,1-.33-.78c-.91,0-1.16-.92-1-1.69m1.55,2.41a2.9,2.9,0,0,0,.42-.12c1.1-.42,1.57-1.27,2.21-2.4l.28-.49a4.14,4.14,0,0,1,1-1.25L42,73.17a3.8,3.8,0,0,0-3,.09,3.34,3.34,0,0,0-1.53,2.06c-.1.55,0,1.17.46,1.34a2.33,2.33,0,0,1,0-.38,3.06,3.06,0,0,1,.85-2.1c1.21-1.21,2.36-.73,1.76.76a3.07,3.07,0,0,1-1.73,1.75,2.83,2.83,0,0,1-.44.11,2.15,2.15,0,0,0,.24.74m0-.89a2.84,2.84,0,0,0,1.82-1.72c.5-1.15-.15-1.81-1.18-.7a3.29,3.29,0,0,0-.9,2.46.82.82,0,0,0,.26,0"/></g><g class="cls-5"><path class="cls-4" d="M43.13,75.21a1.44,1.44,0,0,1,.81-.47c.19,0,.38.24.08.78l-.49.89c-.22.39.09.23.35,0a3.14,3.14,0,0,0,.73-.85s.08,0,0,0c-.42.7-1,1.17-1.35,1.17-.2,0-.37-.23-.07-.77l.49-.89c.2-.36-.06-.28-.37,0a1.92,1.92,0,0,0-.46.51l-.64,1.15c-.19,0-.43-.13-.22-.51l.82-1.47a6.38,6.38,0,0,1,2.91-3c.88-.3,1.67-.34,2.2.32.1.12.15.35-.1.42-.26-1-1.22-1-2-.66-1.1.43-1.93,2-2.56,3.14Z"/></g><g class="cls-3"><path class="cls-4" d="M45.88,74.74c.34,0,.6.22.36.59a2.16,2.16,0,0,1-1.39.64c-.12.27-.13.53,0,.64a1,1,0,0,0,1-.22,2.92,2.92,0,0,0,.68-.79s.08,0,.06,0a3,3,0,0,1-.71.84,1.29,1.29,0,0,1-1.19.3c-.33-.08-.56-.47-.31-1a1.65,1.65,0,0,1,1.41-1m-.83.85c-.06.1-.12.2-.17.3a1.39,1.39,0,0,0,.93-.64c.14-.25.15-.43,0-.43s-.51.33-.78.77"/><path class="cls-4" d="M50.51,73.09A5.81,5.81,0,0,1,54.33,73l1,.29c.76.22,1.15.22,1.38,0a.32.32,0,0,0,0-.4s0-.06.06,0a.42.42,0,0,1,0,.46,1.24,1.24,0,0,1-.93.29,6.49,6.49,0,0,1-1.08-.16l-.38-.08a3.2,3.2,0,0,0-.46.73l-.4.72a3.4,3.4,0,0,0,1.34-.08c-.11.26-.2.37-.39.41a2.58,2.58,0,0,1-1-.21l-.11.2a4.91,4.91,0,0,1-2.63,2.4,3.31,3.31,0,0,1-.42.12,1.58,1.58,0,0,0,2.5.3c.08-.1.11,0,0,0A1.79,1.79,0,0,1,50,77.68a1.78,1.78,0,0,1-1.74-.48c-.1-.13-.14-.35.1-.43.19.76.9.92,1.58.83a2.79,2.79,0,0,1-.34-.78c-.9,0-1.16-.92-1-1.69a3.13,3.13,0,0,1,1.87-2m-.32,4.45a3.31,3.31,0,0,0,.42-.12c1.1-.42,1.57-1.27,2.21-2.4l.28-.49a4.29,4.29,0,0,1,1-1.25l-.48-.11a3.8,3.8,0,0,0-3,.09,3.31,3.31,0,0,0-1.53,2.06c-.1.55,0,1.17.46,1.34a2.32,2.32,0,0,1,0-.38,3.13,3.13,0,0,1,.86-2.1c1.2-1.21,2.36-.73,1.76.76a3.07,3.07,0,0,1-1.73,1.75,3.13,3.13,0,0,1-.44.11,2.15,2.15,0,0,0,.24.74m0-.89A2.84,2.84,0,0,0,52,74.93c.5-1.15-.15-1.81-1.19-.7a3.32,3.32,0,0,0-.89,2.46.82.82,0,0,0,.26,0"/></g><g class="cls-5"><path class="cls-4" d="M55.61,74.78c.19,0,.43.13.22.5l-.62,1.13c-.22.39.09.23.36,0a3.31,3.31,0,0,0,.72-.85s.07,0,.05,0c-.41.7-1,1.17-1.35,1.17-.2,0-.37-.23-.07-.77Zm.56-.82a.21.21,0,0,1,.23.24.31.31,0,0,1-.31.24.22.22,0,0,1-.24-.24.34.34,0,0,1,.32-.24"/><path class="cls-4" d="M58.6,75.63c-.42.7-1,1.17-1.35,1.17-.2,0-.37-.23-.07-.77l.49-.89c.2-.36-.06-.28-.37,0a2.13,2.13,0,0,0-.47.51l-.63,1.15c-.19,0-.42-.13-.22-.51l.82-1.48c.18,0,.41.12.24.46a1.55,1.55,0,0,1,.84-.5c.19,0,.38.24.08.78l-.49.89c-.22.39.09.23.35,0a3.14,3.14,0,0,0,.73-.85s.08,0,.05,0"/><path class="cls-4" d="M60,75.14a.66.66,0,0,1,.69-.36l-.9,1.63c-.22.39.09.23.35,0a3.14,3.14,0,0,0,.73-.85s.07,0,0,0c-.42.7-1,1.17-1.35,1.17-.15,0-.29-.13-.21-.44a1,1,0,0,1-.73.44c-.45,0-.42-.55-.15-1s.8-1.12,1.31-1c.17,0,.23.18.21.4m-1,.63c-.29.52-.38.9-.15.9s.52-.38.81-.9.36-.88.18-.88-.55.36-.84.88"/></g><g class="cls-3"><path class="cls-4" d="M61,76.41c-.22.39.16.24.4,0a3.3,3.3,0,0,0,.74-.85s.07,0,.06,0a3.89,3.89,0,0,1-.8.92c-.17.14-.67.43-.81.13-.07-.13,0-.33.12-.65l.69-1.24a6.43,6.43,0,0,1,2.91-3c.88-.3,1.67-.34,2.2.32.1.12.15.35-.1.42-.26-1-1.22-1-2.05-.66-1.1.43-1.93,2-2.56,3.14Z"/><path class="cls-4" d="M70.12,73.07a2.44,2.44,0,0,1,.28-.14.9.9,0,0,1,1.14.25.24.24,0,0,1-.14.4c0-.42-.34-.83-.82-.62a1,1,0,0,0-.28.18c.74.3,1.19.89.6,1.4a1.94,1.94,0,0,1-1,.31c1,.26,1.09,1.13.58,1.63a2.29,2.29,0,0,1-2.7.24,4.4,4.4,0,0,1-1.37.8l-.42.11a1.58,1.58,0,0,0,2.5.31c.08-.1.11,0,0,0a1.79,1.79,0,0,1-2.78-.28A1.76,1.76,0,0,1,64,77.2a.25.25,0,0,1,.1-.42c.19.75.89.92,1.58.82a2.79,2.79,0,0,1-.34-.78c-.9,0-1.15-.92-1-1.68a3.5,3.5,0,0,1,3.31-2.38,6,6,0,0,1,2.4.31M66,77.54a2.77,2.77,0,0,0,.41-.12c1.1-.42,1.57-1.27,2.21-2.4l.29-.48A4.13,4.13,0,0,1,70,73.15a5.33,5.33,0,0,0-2.28-.26,3.26,3.26,0,0,0-2.87,2.44c-.1.55,0,1.17.46,1.34a2.3,2.3,0,0,1,0-.39,3.08,3.08,0,0,1,.86-2.1c1.2-1.21,2.36-.72,1.76.76a3,3,0,0,1-1.73,1.75,2.17,2.17,0,0,1-.44.11,2.15,2.15,0,0,0,.24.74m-.26-.84.26,0a2.84,2.84,0,0,0,1.82-1.72c.49-1.16-.15-1.81-1.19-.71a3.36,3.36,0,0,0-.89,2.47m3.49-1.83-.28.5a5.27,5.27,0,0,1-1,1.28,1.68,1.68,0,0,0,2.31-.46c.31-.58.09-1.34-1-1.32m1-1.65a3.71,3.71,0,0,0-.64.94l-.31.58a1.62,1.62,0,0,0,1.32-.36c.36-.42.24-.91-.37-1.16"/></g><g class="cls-5"><path class="cls-4" d="M72.79,74.74c.35,0,.61.22.36.59a2.16,2.16,0,0,1-1.39.64c-.12.27-.12.53,0,.64a1,1,0,0,0,1-.22,3.14,3.14,0,0,0,.69-.79s.08,0,0,0a3,3,0,0,1-.71.84,1.29,1.29,0,0,1-1.19.3c-.32-.08-.56-.47-.31-1a1.66,1.66,0,0,1,1.41-1m-.82.85a2.38,2.38,0,0,0-.18.3,1.35,1.35,0,0,0,.93-.64c.15-.25.15-.43,0-.43s-.5.33-.77.77"/><path class="cls-4" d="M75,75.14a.66.66,0,0,1,.69-.36l-.9,1.63c-.22.39.09.23.35,0a3.14,3.14,0,0,0,.73-.85s.07,0,0,0c-.42.7-1,1.17-1.35,1.17-.15,0-.29-.13-.21-.44a1,1,0,0,1-.73.44c-.45,0-.42-.55-.15-1s.8-1.12,1.31-1c.17,0,.23.18.21.4m-1,.63c-.29.52-.38.9-.15.9s.52-.38.81-.9.36-.88.18-.88-.55.36-.84.88"/><path class="cls-4" d="M76.4,74.78a6.4,6.4,0,0,1,2.91-3c.87-.3,1.66-.34,2.2.32.1.12.14.35-.1.42-.27-1-1.23-1-2.06-.66-1,.4-1.83,1.82-2.44,2.93h.49c.08,0,0,.1,0,.1h-.51l-.68,1.24c-.16.28-.21.48-.1.52a.52.52,0,0,0,.38-.08,2.62,2.62,0,0,0,1-1s.07,0,0,0a2.82,2.82,0,0,1-1,1c-.65.38-1.17.1-.63-.87l.49-.89H76c-.07,0-.06-.1,0-.1Z"/><path class="cls-4" d="M77.93,74.78c.18,0,.42.13.21.5l-.62,1.13c-.22.39.1.23.36,0a3.14,3.14,0,0,0,.73-.85s.07,0,0,0c-.41.7-1,1.17-1.35,1.17-.19,0-.37-.23-.06-.77Zm.56-.82a.22.22,0,0,1,.23.24.33.33,0,0,1-.32.24.22.22,0,0,1-.24-.24.34.34,0,0,1,.33-.24"/><path class="cls-4" d="M79.17,74.78a6.34,6.34,0,0,1,2.9-3c.88-.3,1.66-.34,2.2.32.1.12.15.35-.1.42-.26-1-1.22-1-2-.66-1,.4-1.83,1.82-2.45,2.93h.5c.07,0,0,.1,0,.1h-.51l-.67,1.24c-.16.28-.22.48-.11.52a.51.51,0,0,0,.38-.08,2.55,2.55,0,0,0,1-1s.07,0,0,0a2.79,2.79,0,0,1-1,1c-.65.38-1.18.1-.64-.87l.5-.89h-.31c-.08,0-.07-.1,0-.1Z"/><path class="cls-4" d="M80.07,76.8c-.19,0-.37-.23-.07-.77l.69-1.25c.19,0,.42.12.21.5l-.63,1.12c-.2.37.1.26.41,0a2.28,2.28,0,0,0,.47-.5l.39-.7a.67.67,0,0,1,.71-.42l-.9,1.63c-.22.39.1.23.36,0a3.12,3.12,0,0,0,.72-.85s.08,0,.06,0c-.42.7-1,1.17-1.36,1.17-.16,0-.3-.17-.16-.56a1.74,1.74,0,0,1-.9.56"/><path class="cls-4" d="M84.05,74.79a6.38,6.38,0,0,1,2.91-3c.88-.3,1.66-.34,2.2.32.1.12.15.35-.1.42-.26-1-1.22-1-2-.66-1.1.43-1.94,2-2.57,3.14l-.79,1.42c-.22.39.16.24.41,0a3.28,3.28,0,0,0,.73-.85s.08,0,0,0a3.63,3.63,0,0,1-.78.92c-.18.14-.68.43-.83.13a.46.46,0,0,1,0-.31,1.06,1.06,0,0,1-.73.43c-.45,0-.42-.55-.16-1s.8-1.12,1.32-1c.17,0,.23.18.2.39Zm-1.2,1c-.29.52-.38.9-.16.9s.53-.38.82-.9.35-.88.17-.88-.54.36-.83.88"/></g><g class="cls-3"><path class="cls-4" d="M86.06,74.74c.35,0,.61.22.36.59A2.16,2.16,0,0,1,85,76c-.12.27-.12.53,0,.64a1,1,0,0,0,1-.22,3.14,3.14,0,0,0,.69-.79s.08,0,0,0a3,3,0,0,1-.71.84,1.29,1.29,0,0,1-1.19.3c-.32-.08-.56-.47-.31-1a1.66,1.66,0,0,1,1.41-1m-.82.85a2.38,2.38,0,0,0-.18.3,1.35,1.35,0,0,0,.93-.64c.15-.25.15-.43,0-.43s-.5.33-.77.77"/><path class="cls-4" d="M38.05,57.34c.76-1.44,1.54-2.86,2.3-4.25.53-1,1.07-1.94,1.6-2.93l0,0a2.2,2.2,0,0,0,.1-.72v-.07a2.13,2.13,0,0,0-.57-1.7A1.63,1.63,0,0,0,40,46.86c-1.69.29-4,1.91-7,4.81C31.21,53.4,29.73,55,28.5,56.41c2.36-4,3.78-7,4.25-8.85a6.74,6.74,0,0,0,.14-1.32,4.38,4.38,0,0,0-.68-2.5,2.69,2.69,0,0,0-2.13-1.26c-1.64-.09-3.69.58-6.11,2a25.15,25.15,0,0,0-5.83,4.68c-1.79,1.9-2.68,3.43-2.74,4.68-.08,1.72.77,2.24,1.49,2.37A3.79,3.79,0,0,0,18.67,56c.18-.05.56-.16.56-.52a.41.41,0,0,0-.14-.31.65.65,0,0,0-.55-.11h0a3.74,3.74,0,0,1-1.52,0,.5.5,0,0,1-.45-.56c0-1.26.92-2.86,2.64-4.64A25.65,25.65,0,0,1,25,45.39c2.12-1.23,3.89-1.84,5.12-1.76s1.7.75,1.7,2.12a5.54,5.54,0,0,1-.26,1.54c-.76,2.45-3.38,7.35-7.78,14.58l-.05.11a1.19,1.19,0,0,0-.13.46.64.64,0,0,0,.67.62,1.07,1.07,0,0,0,.95-.59c.57-.89,1.55-2.23,3-4.1a57.28,57.28,0,0,1,5.38-5.95,20.81,20.81,0,0,1,5.79-4.17,2.22,2.22,0,0,1,.85-.22c.3,0,.32.08.32.26a2,2,0,0,1-.27.9l-4,8c-1.71,3.46-6.21,16-6.29,17.86a2.64,2.64,0,0,0,.66,1.81,1.22,1.22,0,0,0,.88.4A4.35,4.35,0,0,0,34,76.08a8.3,8.3,0,0,0,1.87-1.94,1.23,1.23,0,0,0,.29-.63.39.39,0,0,0-.15-.34l-.09-.09h-.13c-.21,0-.37.16-.63.42-2.28,2.25-3.31,2.73-3.77,2.73-.05,0-.12-.18-.12-.51,0,0,0-.08,0-.14a.76.76,0,0,0,0-.56h0c-.11-.24-.29-1.52,2.36-8,1.51-3.71,3.43-7.82,4.42-9.66"/></g><g class="cls-5"><path class="cls-4" d="M43.23,52.69a.44.44,0,0,0,.16,0,1.8,1.8,0,0,0,1.12-.58,2.41,2.41,0,0,0,.86-1.23.73.73,0,0,0-.19-.7,1,1,0,0,0-.92-.34,2.46,2.46,0,0,0-1.17.83,1.92,1.92,0,0,0-.72,1.23c0,.23.11.63.86.77"/><path class="cls-4" d="M53.67,55.05a.54.54,0,0,0,.54,0,1.42,1.42,0,0,0,.71-1,.39.39,0,0,0-.12-.28l0,0,0,0a2.79,2.79,0,0,0-1.41-.2h0l-.06,0a12.91,12.91,0,0,0-2.8,1.88A21.77,21.77,0,0,0,48,57.67c.44-.7,1.09-1.63,2-2.81a.57.57,0,0,0,.06-.65.52.52,0,0,0-.5-.31.43.43,0,0,0-.32.13,18.76,18.76,0,0,1-2,1.09l-.12.05-.05.11a.54.54,0,0,0,0,.43,1.24,1.24,0,0,0,.07.2,1.62,1.62,0,0,1-.14.56,29.51,29.51,0,0,1-1.82,3.44.36.36,0,0,0-.19-.13c-.21-.06-.42,0-.73.36A6.76,6.76,0,0,1,41,62c-.47.11-.72,0-.78,0s-.08-.49.26-1.18a11.92,11.92,0,0,0,.57-1.25c.05-.17.13-.33,2.46-4.73a1.13,1.13,0,0,0,0-1.33,1,1,0,0,0-1-.3.88.88,0,0,0-.68.74c0,.13-.34.74-.63,1.34-.93,1.91-2.34,4.8-2.36,6.12a1.85,1.85,0,0,0,.9,1.6,2.44,2.44,0,0,0,1.23.4.84.84,0,0,0,.37-.07,10,10,0,0,0,2.71-1.72c-.23.38-.47.76-.73,1.15l0,0a.71.71,0,0,0,0,.51.39.39,0,0,0,.3.3h.07a.43.43,0,0,0,.31-.16,7.39,7.39,0,0,1,1-.49h0a.75.75,0,0,0,.37-.35,19.8,19.8,0,0,1,7.07-7.28c.69-.36,1-.32,1.19-.24m-9.76,8.06Z"/><path class="cls-4" d="M61.14,54.89a3.1,3.1,0,0,0,.83.34h0a.69.69,0,0,0,.58-.09.51.51,0,0,0,.18-.41.5.5,0,0,0-.22-.41.41.41,0,0,1-.22-.33c0-.16.06-.55.68-1.43h0a.42.42,0,0,0,0-.52c-.09-.12-.61-.69-1-.49a10.63,10.63,0,0,0-.88.62l-.35.25,0,.09c-.13.37-.21.7-.27.93a3.41,3.41,0,0,1-.1.36v0c-.88,1.23-1.79,2.5-2.72,3.75a25.52,25.52,0,0,1-3.14,3.71,1,1,0,0,1-.48.26c-.09,0-.1-.18-.1-.28a2.4,2.4,0,0,1,.07-.49,26,26,0,0,1,3-6l0,0v0l0,0a.5.5,0,0,0,.07-.25.66.66,0,0,0-.75-.67.61.61,0,0,0-.53.24c-2.29,3.16-3.64,5.71-4.12,7.8a.6.6,0,0,0,.08.53,1.37,1.37,0,0,0,1,.56H53a1.52,1.52,0,0,0,.43-.06,1.49,1.49,0,0,0,.31-.15A2.43,2.43,0,0,0,55,62a34.87,34.87,0,0,0,3.42-3.59,40.47,40.47,0,0,0,2.67-3.46l0,0"/><path class="cls-4" d="M83,54.57a.86.86,0,0,0-.11-.88,1.32,1.32,0,0,0-1.16-.55c-2.14.19-7.28,5.32-9.08,7.28a.48.48,0,0,1-.21.14,1.46,1.46,0,0,1,.09-.18C73.78,58,76.21,54,77.54,52.9a.91.91,0,0,0,.38-.9.81.81,0,0,0-.59-.62,1,1,0,0,0-1,.32A41.88,41.88,0,0,0,70.2,62c-.18.69,0,1.39.36,1.6a.59.59,0,0,0,.73-.19c2.51-2.87,6.46-6.75,9.19-8.47.34-.2.55-.19.63-.11a.35.35,0,0,1,0,.41,22.5,22.5,0,0,1-1.64,2.16c-2.23,2.75-3.93,4.95-3.92,6.07a1.68,1.68,0,0,0,.18.81,20.18,20.18,0,0,1-2.38,2.28,13.23,13.23,0,0,1-3.68,2.3,5.67,5.67,0,0,1-1.83.31c-1.21,0-1.82-.51-1.82-1.51a3.7,3.7,0,0,1,0-.47,32.15,32.15,0,0,1,3.3-9c.73-1.21,1.53-2.43,2.3-3.62l.78-1.21,0,0v0a.65.65,0,0,0-.11-.5.55.55,0,0,0-.43-.25.6.6,0,0,0-.39.15l0,0A.88.88,0,0,1,71,53h0l-.25,0-.12,0a4.91,4.91,0,0,0-1.38-.25,3.14,3.14,0,0,0-1.23.24,16,16,0,0,0-5,3.62c-2.07,2.08-3.12,3.83-3.12,5.2,0,1.05.54,1.27,1,1.27a1.43,1.43,0,0,0,.79-.26,29.55,29.55,0,0,0,4.17-3.07c1-.82,1.75-1.54,2.41-2.19-.3.56-.61,1.18-.93,1.88A29.93,29.93,0,0,0,65,67.08a2.56,2.56,0,0,0,1,2.41,4.53,4.53,0,0,0,2.35.75A5.18,5.18,0,0,0,70.06,70a14,14,0,0,0,3.85-2.46A21.1,21.1,0,0,0,76.37,65a1.8,1.8,0,0,0,.8.38h.11a3.68,3.68,0,0,0,1.83-.9c.28-.26.45-.71.23-1-.07-.08-.32-.32-.8,0a4.48,4.48,0,0,1-1.05.5h0a1.48,1.48,0,0,1-.33.06V64c.17-.23.32-.46.46-.66h0a.85.85,0,0,0,.15-.46.42.42,0,0,0-.12-.31l-.09-.09h0a41.39,41.39,0,0,1,2.69-3.9,29.15,29.15,0,0,0,2.74-4m-20.7,6.54c-.1,0-.17,0-.17-.34a1.59,1.59,0,0,1,.08-.5,14.75,14.75,0,0,1,2.54-3.74,7.44,7.44,0,0,1,3.09-2.39,2.26,2.26,0,0,1,.56-.07c.55,0,.91.28.94.48h0A32.06,32.06,0,0,1,62.5,61a.53.53,0,0,1-.25.09"/><path class="cls-4" d="M98.79,62.6l-.09-.09h-.13c-.24,0-.39.18-.58.39a22.79,22.79,0,0,1-3.5,3.61,13.23,13.23,0,0,1-3.68,2.3,5.67,5.67,0,0,1-1.83.31c-1.21,0-1.82-.51-1.82-1.51a3.7,3.7,0,0,1,0-.47,32.15,32.15,0,0,1,3.3-9c.73-1.21,1.53-2.43,2.3-3.62l.78-1.21,0,0v0a.65.65,0,0,0-.11-.5.55.55,0,0,0-.43-.25.6.6,0,0,0-.39.15l0,0a.88.88,0,0,1-.52.25h0l-.25,0-.12,0a4.91,4.91,0,0,0-1.38-.25,3.14,3.14,0,0,0-1.23.24,16,16,0,0,0-5,3.62C82,58.61,81,60.36,81,61.73c0,1.05.55,1.27,1,1.27a1.43,1.43,0,0,0,.79-.26,29.55,29.55,0,0,0,4.17-3.07c1-.82,1.75-1.54,2.41-2.19-.3.56-.61,1.18-.93,1.88a29.54,29.54,0,0,0-2.27,7.72,2.56,2.56,0,0,0,1,2.41,4.53,4.53,0,0,0,2.35.75A5.18,5.18,0,0,0,91.21,70a14,14,0,0,0,3.85-2.46,20,20,0,0,0,3.69-4.11h0a.85.85,0,0,0,.15-.46.42.42,0,0,0-.12-.31M83.4,61.11c-.1,0-.17,0-.17-.34a1.35,1.35,0,0,1,.08-.5,14.49,14.49,0,0,1,2.54-3.74,7.44,7.44,0,0,1,3.09-2.39,2.26,2.26,0,0,1,.56-.07c.55,0,.91.28.94.48h0A32.06,32.06,0,0,1,83.65,61a.57.57,0,0,1-.25.09"/></g><g class="cls-6"><rect class="cls-7" x="41.19" y="7.18" width="25.6" height="25.15" transform="translate(-3.09 26.64) rotate(-26.97)"/></g><g class="cls-8"><rect class="cls-9" x="43.78" y="27.63" width="7.82" height="7.55" transform="translate(-9.06 25.05) rotate(-26.97)"/></g><g class="cls-10"><rect class="cls-11" x="43.18" y="28.13" width="11.83" height="12.03" transform="translate(-10.15 25.98) rotate(-26.97)"/></g><g class="cls-12"><rect class="cls-13" x="42.54" y="24.87" width="23.64" height="20.53" transform="translate(-10.02 28.48) rotate(-26.97)"/></g><g class="cls-14"><rect class="cls-15" x="48.56" y="18.45" width="28.64" height="28.77" transform="translate(-8.05 32.09) rotate(-26.97)"/></g><g class="cls-16"><rect class="cls-17" x="61.74" y="28.62" width="15.68" height="15.01" transform="translate(-8.81 35.49) rotate(-26.97)"/></g><g class="cls-18"><rect class="cls-19" x="72.34" y="21.95" width="7.29" height="7.64" transform="translate(-3.42 37.27) rotate(-26.97)"/></g><g class="cls-20"><rect class="cls-21" x="70.16" y="36.87" width="5.25" height="4.16" transform="translate(-9.75 37.25) rotate(-26.97)"/></g><g class="cls-22"><rect class="cls-23" x="60.91" y="36.6" width="19.27" height="13.32" transform="translate(-11.94 36.7) rotate(-26.97)"/></g><g class="cls-24"><rect class="cls-25" x="63.2" y="40.37" width="11.73" height="9.4" transform="translate(-12.93 36.23) rotate(-26.97)"/></g><g class="cls-26"><rect class="cls-27" x="55.49" y="6.31" width="3.77" height="4.55" transform="translate(2.35 26.96) rotate(-26.97)"/></g><g class="cls-28"><rect class="cls-29" x="54.21" y="6.85" width="4.03" height="4.2" transform="translate(2.06 26.48) rotate(-26.97)"/></g><g class="cls-30"><rect class="cls-31" x="53.88" y="7.97" width="3.47" height="3.08" transform="translate(1.74 26.26) rotate(-26.97)"/></g><g class="cls-5"><path class="cls-2" d="M55.93,11.67a1,1,0,0,0,.44-.06l-.22.24"/></g></g></g></svg>